<svg width="23" height="21" viewBox="0 0 23 21" fill="none" xmlns="http://www.w3.org/2000/svg">
<path d="M0.84 9.24055C0.376081 9.24055 0 8.86447 0 8.40055C0 7.93663 0.376081 7.56055 0.84 7.56055H2.52C3.91176 7.56055 5.04 8.68879 5.04 10.0805V18.4805C5.04 19.8723 3.91176 21.0005 2.52 21.0005H0.84C0.376081 21.0005 0 20.6245 0 20.1605C0 19.6966 0.376081 19.3205 0.84 19.3205H2.52C2.98392 19.3205 3.36 18.9445 3.36 18.4805V10.0805C3.36 9.61663 2.98392 9.24055 2.52 9.24055H0.84Z" fill="#647594"/>
<path d="M5.03937 14.2807C5.03937 14.7446 4.66329 15.1207 4.19937 15.1207C3.73546 15.1207 3.35938 14.7446 3.35938 14.2807V11.7607C3.35938 11.4798 3.49974 11.2175 3.73343 11.0617L6.09898 9.48471C7.2106 8.74363 8.60848 8.57562 9.86404 9.03218L11.3076 9.55711C12.5874 10.0225 13.4394 11.2388 13.4394 12.6007C13.4394 13.7333 12.5212 14.6515 11.3885 14.6515C11.1681 14.6515 10.9491 14.616 10.74 14.5463L8.55374 13.8176C8.11363 13.6709 7.87578 13.1951 8.02248 12.755C8.16918 12.3149 8.64489 12.0771 9.08501 12.2238L11.2712 12.9525C11.309 12.9651 11.3486 12.9715 11.3885 12.9715C11.5933 12.9715 11.7594 12.8055 11.7594 12.6007C11.7594 11.9453 11.3494 11.3599 10.7335 11.136L9.28991 10.611C8.53658 10.3371 7.69785 10.4379 7.03088 10.8826L5.03937 12.2102V14.2807Z" fill="#647594"/>
<path d="M19.3211 1.67969C19.785 1.67969 20.1611 2.05577 20.1611 2.51969C20.1611 2.98361 19.785 3.35969 19.3211 3.35969H17.2211C16.9891 3.35969 16.8011 3.54773 16.8011 3.77969C16.8011 4.01165 16.9891 4.19969 17.2211 4.19969H18.0611C19.2209 4.19969 20.1611 5.13989 20.1611 6.29969C20.1611 7.45949 19.2209 8.39969 18.0611 8.39969H15.9611C15.4972 8.39969 15.1211 8.02361 15.1211 7.55969C15.1211 7.09577 15.4972 6.71969 15.9611 6.71969H18.0611C18.2931 6.71969 18.4811 6.53165 18.4811 6.29969C18.4811 6.06773 18.2931 5.87969 18.0611 5.87969H17.2211C16.0613 5.87969 15.1211 4.93949 15.1211 3.77969C15.1211 2.61989 16.0613 1.67969 17.2211 1.67969H19.3211Z" fill="#647594"/>
<path d="M16.8008 0.84C16.8008 0.376081 17.1769 0 17.6408 0C18.1047 0 18.4808 0.376081 18.4808 0.84V2.52C18.4808 2.98392 18.1047 3.36 17.6408 3.36C17.1769 3.36 16.8008 2.98392 16.8008 2.52V0.84Z" fill="#647594"/>
<path d="M18.4808 9.2407C18.4808 9.70462 18.1047 10.0807 17.6408 10.0807C17.1769 10.0807 16.8008 9.70462 16.8008 9.2407V7.5607C16.8008 7.09678 17.1769 6.7207 17.6408 6.7207C18.1047 6.7207 18.4808 7.09678 18.4808 7.5607V9.2407Z" fill="#647594"/>
<path d="M8.49644 13.7958C8.0682 13.6174 7.8657 13.1256 8.04413 12.6973C8.22256 12.2691 8.71436 12.0666 9.14259 12.245L12.6333 13.6995C13.3649 14.0043 14.1972 13.9472 14.8803 13.5454L19.5497 10.7987C20.4825 10.25 21.6682 10.4012 22.4335 11.1664C23.167 11.8999 23.167 13.0891 22.4335 13.8226C22.374 13.8821 22.3106 13.9375 22.2437 13.9885L16.1188 18.6551C14.8169 19.647 13.1604 20.0514 11.5478 19.771L4.05559 18.468C3.59853 18.3885 3.29245 17.9535 3.37194 17.4965C3.45142 17.0394 3.88638 16.7333 4.34344 16.8128L11.8356 18.1158C12.9875 18.3161 14.1707 18.0273 15.1007 17.3187L21.2255 12.6522C21.2326 12.6468 21.2393 12.641 21.2455 12.6347C21.3229 12.5573 21.3229 12.4318 21.2455 12.3544C21.0216 12.1304 20.6745 12.0861 20.4015 12.2467L15.732 14.9935C14.5936 15.6632 13.2064 15.7583 11.9872 15.2503L8.49644 13.7958Z" fill="#647594"/>
</svg>
