<svg width="22" height="22" viewBox="0 0 22 22" fill="none" xmlns="http://www.w3.org/2000/svg">
<path d="M10.4299 1.66879C5.59128 1.66879 1.66879 5.59128 1.66879 10.4299V11.2643C1.66879 16.103 5.59128 20.0255 10.4299 20.0255H11.2643C16.103 20.0255 20.0255 16.103 20.0255 11.2643V10.4299C20.0255 5.59128 16.103 1.66879 11.2643 1.66879H10.4299ZM10.4299 0H11.2643C17.0246 0 21.6943 4.66964 21.6943 10.4299V11.2643C21.6943 17.0246 17.0246 21.6943 11.2643 21.6943H10.4299C4.66964 21.6943 0 17.0246 0 11.2643V10.4299C0 4.66964 4.66964 0 10.4299 0Z" fill="#647594"/>
<path d="M13.3486 6.67578C13.8094 6.67578 14.183 7.04935 14.183 7.51018C14.183 7.971 13.8094 8.34457 13.3486 8.34457H10.011C9.55017 8.34457 9.1766 8.71814 9.1766 9.17896C9.1766 9.63979 9.55017 10.0134 10.011 10.0134H11.6798C13.0623 10.0134 14.183 11.1341 14.183 12.5165C14.183 13.899 13.0623 15.0197 11.6798 15.0197H8.34221C7.88138 15.0197 7.50781 14.6462 7.50781 14.1853C7.50781 13.7245 7.88138 13.3509 8.34221 13.3509H11.6798C12.1406 13.3509 12.5142 12.9774 12.5142 12.5165C12.5142 12.0557 12.1406 11.6821 11.6798 11.6821H10.011C8.62853 11.6821 7.50781 10.5614 7.50781 9.17896C7.50781 7.79649 8.62853 6.67578 10.011 6.67578H13.3486Z" fill="#647594"/>
<path d="M10.0117 5.84025C10.0117 5.37943 10.3853 5.00586 10.8461 5.00586C11.3069 5.00586 11.6805 5.37943 11.6805 5.84025V7.50904C11.6805 7.96987 11.3069 8.34344 10.8461 8.34344C10.3853 8.34344 10.0117 7.96987 10.0117 7.50904V5.84025Z" fill="#647594"/>
<path d="M11.6805 15.8528C11.6805 16.3136 11.3069 16.6872 10.8461 16.6872C10.3853 16.6872 10.0117 16.3136 10.0117 15.8528V14.184C10.0117 13.7232 10.3853 13.3496 10.8461 13.3496C11.3069 13.3496 11.6805 13.7232 11.6805 14.184V15.8528Z" fill="#647594"/>
</svg>
