<svg width="16" height="22" viewBox="0 0 16 22" fill="none" xmlns="http://www.w3.org/2000/svg">
<path d="M14.2222 2.66667C14.2222 2.17575 13.8243 1.77778 13.3333 1.77778H2.66667C2.17575 1.77778 1.77778 2.17575 1.77778 2.66667V18.772L3.78524 17.417C4.44429 16.9721 5.31859 17.019 5.9263 17.5317L8 19.2814L10.0737 17.5317C10.6814 17.019 11.5557 16.9721 12.2148 17.417L14.2222 18.772V2.66667ZM2.66667 0H13.3333C14.8061 0 16 1.19391 16 2.66667V20.4444C16 21.1567 15.2042 21.5797 14.6138 21.1812L11.2201 18.8905L9.14644 20.6402C8.48425 21.1989 7.51575 21.1989 6.85356 20.6402L4.77986 18.8905L1.3862 21.1812C0.795836 21.5797 0 21.1567 0 20.4444V2.66667C0 1.19391 1.19391 0 2.66667 0Z" fill="#647594"/>
<path d="M4.44358 7.11176C3.95266 7.11176 3.55469 6.71379 3.55469 6.22287C3.55469 5.73195 3.95266 5.33398 4.44358 5.33398H11.5547C12.0456 5.33398 12.4436 5.73195 12.4436 6.22287C12.4436 6.71379 12.0456 7.11176 11.5547 7.11176H4.44358Z" fill="#647594"/>
<path d="M4.44358 10.6664C3.95266 10.6664 3.55469 10.2685 3.55469 9.77756C3.55469 9.28664 3.95266 8.88867 4.44358 8.88867H11.5547C12.0456 8.88867 12.4436 9.28664 12.4436 9.77756C12.4436 10.2685 12.0456 10.6664 11.5547 10.6664H4.44358Z" fill="#647594"/>
<path d="M4.44358 14.2211C3.95266 14.2211 3.55469 13.8232 3.55469 13.3322C3.55469 12.8413 3.95266 12.4434 4.44358 12.4434H11.5547C12.0456 12.4434 12.4436 12.8413 12.4436 13.3322C12.4436 13.8232 12.0456 14.2211 11.5547 14.2211H4.44358Z" fill="#647594"/>
</svg>
