<svg width="21" height="21" viewBox="0 0 21 21" fill="none" xmlns="http://www.w3.org/2000/svg">
<path d="M2.31063 2.09976C1.88525 2.09976 1.54042 2.45395 1.54042 2.89085V6.05522C1.54042 6.49213 1.88525 6.84631 2.31063 6.84631H5.39147C5.81685 6.84631 6.16168 6.49213 6.16168 6.05522V2.89085C6.16168 2.45395 5.81685 2.09976 5.39147 2.09976H2.31063ZM2.31063 0.517578H5.39147C6.6676 0.517578 7.7021 1.58013 7.7021 2.89085V6.05522C7.7021 7.36594 6.6676 8.42849 5.39147 8.42849H2.31063C1.0345 8.42849 0 7.36594 0 6.05522V2.89085C0 1.58013 1.0345 0.517578 2.31063 0.517578Z" fill="#647594"/>
<path d="M14.6348 13.1759C14.2095 13.1759 13.8646 13.5301 13.8646 13.967V17.1314C13.8646 17.5683 14.2095 17.9225 14.6348 17.9225H17.7157C18.1411 17.9225 18.4859 17.5683 18.4859 17.1314V13.967C18.4859 13.5301 18.1411 13.1759 17.7157 13.1759H14.6348ZM14.6348 11.5938H17.7157C18.9918 11.5938 20.0263 12.6563 20.0263 13.967V17.1314C20.0263 18.4421 18.9918 19.5047 17.7157 19.5047H14.6348C13.3587 19.5047 12.3242 18.4421 12.3242 17.1314V13.967C12.3242 12.6563 13.3587 11.5938 14.6348 11.5938Z" fill="#647594"/>
<path d="M10.7819 5.26773C10.3566 5.26773 10.0117 4.91355 10.0117 4.47664C10.0117 4.03973 10.3566 3.68555 10.7819 3.68555H18.484C18.9094 3.68555 19.2542 4.03973 19.2542 4.47664C19.2542 4.91355 18.9094 5.26773 18.484 5.26773H10.7819Z" fill="#647594"/>
<path d="M17.5808 4.47509L14.8577 1.67816C14.5569 1.36922 14.5569 0.868327 14.8577 0.559386C15.1585 0.250446 15.6462 0.250446 15.947 0.559386L19.2147 3.9157C19.5155 4.22464 19.5155 4.72554 19.2147 5.03448L15.947 8.39079C15.6462 8.69973 15.1585 8.69973 14.8577 8.39079C14.5569 8.08185 14.5569 7.58096 14.8577 7.27202L17.5808 4.47509Z" fill="#647594"/>
<path d="M9.24151 16.34C9.66688 16.34 10.0117 15.9858 10.0117 15.5489C10.0117 15.112 9.66688 14.7578 9.24151 14.7578H1.53941C1.11403 14.7578 0.769197 15.112 0.769197 15.5489C0.769197 15.9858 1.11403 16.34 1.53941 16.34H9.24151Z" fill="#647594"/>
<path d="M2.44261 15.5513L5.16571 12.7543C5.4665 12.4454 5.4665 11.9445 5.16571 11.6356C4.86493 11.3266 4.37726 11.3266 4.07647 11.6356L0.808748 14.9919C0.507963 15.3008 0.507963 15.8017 0.808748 16.1106L4.07647 19.467C4.37726 19.7759 4.86493 19.7759 5.16571 19.467C5.4665 19.158 5.4665 18.6571 5.16571 18.3482L2.44261 15.5513Z" fill="#647594"/>
</svg>
