<svg width="22" height="16" viewBox="0 0 22 16" fill="none" xmlns="http://www.w3.org/2000/svg">
<path d="M2.50318 1.66879C2.04236 1.66879 1.66879 2.04236 1.66879 2.50318V12.5159C1.66879 12.9767 2.04236 13.3503 2.50318 13.3503H19.1911C19.6519 13.3503 20.0255 12.9767 20.0255 12.5159V2.50318C20.0255 2.04236 19.6519 1.66879 19.1911 1.66879H2.50318ZM2.50318 0H19.1911C20.5735 0 21.6943 1.12071 21.6943 2.50318V12.5159C21.6943 13.8984 20.5735 15.0191 19.1911 15.0191H2.50318C1.12071 15.0191 0 13.8984 0 12.5159V2.50318C0 1.12071 1.12071 0 2.50318 0Z" fill="#647594"/>
<path d="M12.5157 4.17188C12.9765 4.17188 13.3501 4.54545 13.3501 5.00627C13.3501 5.46709 12.9765 5.84066 12.5157 5.84066H10.4297C10.1993 5.84066 10.0125 6.02745 10.0125 6.25786C10.0125 6.48827 10.1993 6.67506 10.4297 6.67506H11.2641C12.4162 6.67506 13.3501 7.60899 13.3501 8.76104C13.3501 9.9131 12.4162 10.847 11.2641 10.847H9.17814C8.71732 10.847 8.34375 10.4735 8.34375 10.0126C8.34375 9.55181 8.71732 9.17824 9.17814 9.17824H11.2641C11.4945 9.17824 11.6813 8.99146 11.6813 8.76104C11.6813 8.53063 11.4945 8.34385 11.2641 8.34385H10.4297C9.27768 8.34385 8.34375 7.40992 8.34375 6.25786C8.34375 5.1058 9.27768 4.17188 10.4297 4.17188H12.5157Z" fill="#647594"/>
<path d="M10.0117 3.3383C10.0117 2.87748 10.3853 2.50391 10.8461 2.50391C11.3069 2.50391 11.6805 2.87748 11.6805 3.3383V5.00709C11.6805 5.46791 11.3069 5.84148 10.8461 5.84148C10.3853 5.84148 10.0117 5.46791 10.0117 5.00709V3.3383Z" fill="#647594"/>
<path d="M11.6805 11.6809C11.6805 12.1417 11.3069 12.5153 10.8461 12.5153C10.3853 12.5153 10.0117 12.1417 10.0117 11.6809V10.0121C10.0117 9.55131 10.3853 9.17773 10.8461 9.17773C11.3069 9.17773 11.6805 9.55131 11.6805 10.0121V11.6809Z" fill="#647594"/>
<path d="M5.83912 6.67578C6.29994 6.67578 6.67351 7.04935 6.67351 7.51018C6.67351 7.971 6.29994 8.34457 5.83912 8.34457H4.17033C3.70951 8.34457 3.33594 7.971 3.33594 7.51018C3.33594 7.04935 3.70951 6.67578 4.17033 6.67578H5.83912Z" fill="#647594"/>
<path d="M17.5227 6.67578C17.9835 6.67578 18.3571 7.04935 18.3571 7.51018C18.3571 7.971 17.9835 8.34457 17.5227 8.34457H15.8539C15.3931 8.34457 15.0195 7.971 15.0195 7.51018C15.0195 7.04935 15.3931 6.67578 15.8539 6.67578H17.5227Z" fill="#647594"/>
</svg>
