<svg width="38" height="38" viewBox="0 0 38 38" fill="none" xmlns="http://www.w3.org/2000/svg">
<mask id="mask0_7195_35159" style="mask-type:luminance" maskUnits="userSpaceOnUse" x="0" y="0" width="38" height="38">
<path d="M37.3415 0.960938H0.949219V37.3532H37.3415V0.960938Z" fill="white"/>
</mask>
<g mask="url(#mask0_7195_35159)">
<path d="M19.1453 37.3532C29.1948 37.3532 37.3415 29.2065 37.3415 19.1571C37.3415 9.10765 29.1948 0.960938 19.1453 0.960938C9.09593 0.960938 0.949219 9.10765 0.949219 19.1571C0.949219 29.2065 9.09593 37.3532 19.1453 37.3532Z" fill="url(#paint0_radial_7195_35159)"/>
<mask id="mask1_7195_35159" style="mask-type:alpha" maskUnits="userSpaceOnUse" x="0" y="0" width="38" height="38">
<path d="M19.1453 37.3532C29.1948 37.3532 37.3415 29.2065 37.3415 19.1571C37.3415 9.10765 29.1948 0.960938 19.1453 0.960938C9.09593 0.960938 0.949219 9.10765 0.949219 19.1571C0.949219 29.2065 9.09593 37.3532 19.1453 37.3532Z" fill="url(#paint1_radial_7195_35159)"/>
</mask>
<g mask="url(#mask1_7195_35159)">
<path opacity="0.2" d="M0.34375 10.97C0.34375 10.5681 0.669617 10.2422 1.07159 10.2422H11.0188C11.4208 10.2422 11.7467 10.5681 11.7467 10.97V27.8924C11.7467 28.2944 11.4208 28.6203 11.0188 28.6203H1.07159C0.669617 28.6203 0.34375 28.2944 0.34375 27.8924V10.97Z" fill="url(#paint2_linear_7195_35159)"/>
<path opacity="0.2" d="M22.9062 25.6478C22.9062 25.2458 23.2321 24.9199 23.6341 24.9199H36.614C37.0159 24.9199 37.3418 25.2458 37.3418 25.6478V31.9558C37.3418 32.3577 37.0159 32.6836 36.614 32.6836H23.6341C23.2321 32.6836 22.9062 32.3577 22.9062 31.9558V25.6478Z" fill="#E74310"/>
<path opacity="0.2" d="M31.3398 27.5898C31.7418 27.5898 32.0676 27.9157 32.0676 28.3177V40.5697C32.0676 40.9717 31.7418 41.2976 31.3398 41.2976H26.5482C26.1462 41.2976 25.8203 40.9717 25.8203 40.5697V28.3177C25.8203 27.9157 26.1462 27.5898 26.5482 27.5898H31.3398Z" fill="#DF3600"/>
<path opacity="0.1" d="M15.6885 12.7891C16.0905 12.7891 16.4164 13.115 16.4164 13.5169V23.2822C16.4164 23.6841 16.0905 24.01 15.6885 24.01H10.2903C9.88839 24.01 9.5625 23.6841 9.5625 23.2822V13.5169C9.5625 13.115 9.88839 12.7891 10.2903 12.7891H15.6885Z" fill="url(#paint3_linear_7195_35159)"/>
<path opacity="0.1" d="M4.41016 15.7005C4.41016 15.2985 4.73602 14.9727 5.138 14.9727H13.9934C14.3954 14.9727 14.7213 15.2985 14.7213 15.7005V24.9805C14.7213 25.3825 14.3954 25.7084 13.9934 25.7084H5.138C4.73602 25.7084 4.41016 25.3825 4.41016 24.9805V15.7005Z" fill="url(#paint4_linear_7195_35159)"/>
<path opacity="0.2" d="M37.3415 5.93555C37.7434 5.93555 38.0693 6.26142 38.0693 6.66339V18.9154C38.0693 19.3174 37.7434 19.6433 37.3415 19.6433H26.0599C25.6579 19.6433 25.332 19.3174 25.332 18.9154V6.66339C25.332 6.26142 25.6579 5.93555 26.0599 5.93555H37.3415Z" fill="#FF9776"/>
<path opacity="0.2" d="M30.489 -2.19141C30.8909 -2.19141 31.2168 -1.86554 31.2168 -1.46356V12.0016C31.2168 12.4035 30.8909 12.7294 30.489 12.7294H24.181C23.779 12.7294 23.4531 12.4035 23.4531 12.0016V-1.46356C23.4531 -1.86554 23.779 -2.19141 24.181 -2.19141H30.489Z" fill="#FFCA8C"/>
<path opacity="0.2" d="M33.7637 0.234375C34.1657 0.234375 34.4916 0.560243 34.4916 0.962221V15.9437C34.4916 16.3456 34.1657 16.6715 33.7637 16.6715H20.056C19.654 16.6715 19.3281 16.3456 19.3281 15.9437V0.96222C19.3281 0.560243 19.654 0.234375 20.056 0.234375H33.7637Z" fill="url(#paint5_linear_7195_35159)"/>
<path opacity="0.1" d="M13.8086 -4.01172C14.2105 -4.01172 14.5364 -3.68585 14.5364 -3.28387V6.78465C14.5364 7.1866 14.2105 7.51249 13.8086 7.51249H9.01691C8.61496 7.51249 8.28906 7.1866 8.28906 6.78465V-3.28387C8.28906 -3.68585 8.61496 -4.01172 9.01691 -4.01172H13.8086Z" fill="#DF3600"/>
<path opacity="0.1" d="M14.3567 27.2246C14.7587 27.2246 15.0846 27.5505 15.0846 27.9525V36.6259C15.0846 37.0279 14.7587 37.3538 14.3567 37.3538H2.16535C1.76337 37.3538 1.4375 37.0279 1.4375 36.6259L1.4375 27.9525C1.4375 27.5505 1.76337 27.2246 2.16535 27.2246H14.3567Z" fill="#DF3600"/>
<path opacity="0.1" d="M25.0923 22.373C25.4942 22.373 25.8201 22.6989 25.8201 23.1009V36.6267C25.8201 37.0286 25.4942 37.3545 25.0923 37.3545H11.1419C10.74 37.3545 10.4141 37.0286 10.4141 36.6267V23.1009C10.4141 22.6989 10.74 22.373 11.1419 22.373H25.0923Z" fill="#FFD494"/>
<path opacity="0.2" d="M20.4801 0.960938C20.882 0.960938 21.2079 1.28681 21.2079 1.68878V5.2067C21.2079 5.60868 20.882 5.93455 20.4801 5.93455H5.92316C5.52118 5.93455 5.19531 5.60868 5.19531 5.2067V1.68878C5.19531 1.2868 5.52118 0.960937 5.92316 0.960938L20.4801 0.960938Z" fill="#FFD494"/>
<path opacity="0.1" d="M9.00339 37.0005L36.2617 9.74219L35.3269 8.80733L8.06853 36.0657L9.00339 37.0005Z" fill="#DF3600"/>
<path opacity="0.1" d="M6.95651 35.0161L34.2148 7.75781L32.9977 6.54065L5.73936 33.799L6.95651 35.0161Z" fill="#DF3600"/>
<path opacity="0.1" d="M5.80808 33.7447L33.0664 6.48633L31.8492 5.26917L4.59092 32.5275L5.80808 33.7447Z" fill="#F45C2C"/>
<path opacity="0.2" d="M4.71433 32.4087L31.9727 5.15039L30.9709 4.14864L3.71258 31.407L4.71433 32.4087Z" fill="#F45C2C"/>
<path opacity="0.1" d="M3.71042 31.4048L30.9688 4.14648L29.967 3.14473L2.70867 30.4031L3.71042 31.4048Z" fill="#FFBC6E"/>
<path opacity="0.1" d="M3.04636 30.0708L30.3047 2.8125L29.3029 1.81075L2.04461 29.0691L3.04636 30.0708Z" fill="#DF3600"/>
<path opacity="0.09" d="M-0.169226 22.0657L21.3242 0.572266L20.3225 -0.429485L-1.17098 21.064L-0.169226 22.0657Z" fill="#FFD5A4"/>
<path opacity="0.08" d="M-1.32157 20.8489L20.1719 -0.644531L19.1701 -1.64628L-2.32332 19.8472L-1.32157 20.8489Z" fill="#FFD5A4"/>
<path opacity="0.05" d="M-2.35282 19.4544L19.1406 -2.03906L18.1389 -3.04081L-3.35457 18.4526L-2.35282 19.4544Z" fill="#FFD5A4"/>
<path opacity="0.2" d="M1.52883 24.9868L26.4922 0.0234375L25.4904 -0.978313L0.527079 23.985L1.52883 24.9868Z" fill="#FFD5A4"/>
<path opacity="0.2" d="M2.1968 26.563L27.1602 1.59961L26.1584 0.597859L1.19505 25.5612L2.1968 26.563Z" fill="#FFD5A4"/>
<path opacity="0.1" d="M1.10203 23.1558L23.2578 1L22.2561 -0.00175075L0.100284 22.154L1.10203 23.1558Z" fill="#FFD5A4"/>
<path opacity="0.1" d="M8.96433 37.02L36.2227 9.76172L34.2241 7.76318L6.96579 35.0215L8.96433 37.02Z" fill="#DF3600"/>
<path opacity="0.1" d="M8.96433 37.02L36.2227 9.76172L34.2139 7.75299L6.95561 35.0113L8.96433 37.02Z" fill="#DF3600"/>
</g>
<path d="M19.1183 23.0837L12.1953 18.9883L19.1183 7.50391L26.035 18.9883L19.1183 23.0837Z" fill="white"/>
<path d="M19.1183 30.0553L12.1953 20.3047L19.1183 24.3938L26.0413 20.3047L19.1183 30.0553Z" fill="white"/>
</g>
<defs>
<radialGradient id="paint0_radial_7195_35159" cx="0" cy="0" r="1" gradientUnits="userSpaceOnUse" gradientTransform="translate(12.8374 9.66475) rotate(54.1675) scale(30.1499)">
<stop stop-color="#FFD794"/>
<stop offset="1" stop-color="#ED5A37"/>
</radialGradient>
<radialGradient id="paint1_radial_7195_35159" cx="0" cy="0" r="1" gradientUnits="userSpaceOnUse" gradientTransform="translate(12.8374 9.66475) rotate(54.1675) scale(30.1499)">
<stop stop-color="#FFD794"/>
<stop offset="1" stop-color="#ED5A37"/>
</radialGradient>
<linearGradient id="paint2_linear_7195_35159" x1="6.0452" y1="10.2422" x2="6.0452" y2="28.6203" gradientUnits="userSpaceOnUse">
<stop stop-color="#FFE090"/>
<stop offset="1" stop-color="#FFE090" stop-opacity="0"/>
</linearGradient>
<linearGradient id="paint3_linear_7195_35159" x1="12.9591" y1="12.7891" x2="12.9591" y2="23.1609" gradientUnits="userSpaceOnUse">
<stop stop-color="#DF3600"/>
<stop offset="1" stop-color="#DF3600" stop-opacity="0"/>
</linearGradient>
<linearGradient id="paint4_linear_7195_35159" x1="4.41016" y1="20.388" x2="13.941" y2="20.388" gradientUnits="userSpaceOnUse">
<stop stop-color="#DF3600"/>
<stop offset="1" stop-color="#DF3600" stop-opacity="0"/>
</linearGradient>
<linearGradient id="paint5_linear_7195_35159" x1="26.9098" y1="0.234375" x2="26.9098" y2="16.6715" gradientUnits="userSpaceOnUse">
<stop stop-color="#DF3600"/>
<stop offset="1" stop-color="#DF3600" stop-opacity="0"/>
</linearGradient>
</defs>
</svg>
