<svg width="21" height="23" viewBox="0 0 21 23" fill="none" xmlns="http://www.w3.org/2000/svg">
<path d="M15.7894 23H13.4417C12.6552 22.9981 12.0176 22.3762 12.0166 21.6081V20.4817H8.98359V21.6081C8.9826 22.3762 8.34503 22.9981 7.55849 23H5.21078C4.42423 22.9981 3.78567 22.3762 3.78468 21.6081V20.4817C2.81641 20.563 1.85708 20.2453 1.13811 19.6061C0.420097 18.9668 0.00696602 18.0651 0 17.1158V3.36579C0.00198608 1.50803 1.54625 0.00198367 3.45098 0H17.549C19.4538 0.00193705 20.998 1.50808 21 3.36579V17.1158C20.993 18.065 20.5799 18.9668 19.8619 19.6061C19.1429 20.2453 18.1835 20.563 17.2153 20.4817V21.6081C17.2143 22.3762 16.576 22.9981 15.7894 23ZM13.6056 21.4503H15.6266V20.4827L13.6056 20.4817V21.4503ZM5.37477 21.4503H7.39473V20.4827L5.37377 20.4817L5.37477 21.4503ZM16.421 18.933H17.5492V18.932C18.577 18.931 19.4092 18.1184 19.4112 17.1159V3.36589C19.4092 2.36339 18.577 1.55172 17.5492 1.54979H3.4511C2.42323 1.55173 1.59102 2.36339 1.58904 3.36589V17.1159C1.59103 18.1184 2.42323 18.9311 3.4511 18.932L16.421 18.933ZM16.5233 16.8912L4.4769 16.8902C4.26636 16.8902 4.06377 16.8089 3.91481 16.6636C3.76584 16.5183 3.68243 16.3207 3.68243 16.1154V4.36735C3.68243 4.16104 3.76584 3.96442 3.91481 3.81914C4.06378 3.67385 4.26637 3.59152 4.4769 3.59249H16.5233C16.7338 3.59152 16.9364 3.67385 17.0854 3.81914C17.2343 3.96443 17.3177 4.16105 17.3177 4.36735V16.1154C17.3177 16.3207 17.2343 16.5183 17.0854 16.6636C16.9364 16.8089 16.7338 16.8902 16.5233 16.8902V16.8912ZM5.27138 15.3415H15.7288V5.14219H5.27138V15.3415ZM10.5 13.5893C10.2894 13.5893 10.0868 13.5079 9.93787 13.3626C9.78891 13.2173 9.70549 13.0198 9.70549 12.8144V11.6018C8.56044 11.224 7.86526 10.0927 8.0609 8.92852C8.25753 7.76525 9.28837 6.91192 10.498 6.91096C11.7066 6.90999 12.7384 7.76332 12.936 8.92659C13.1336 10.0899 12.4395 11.2221 11.2944 11.6018V12.8145C11.2944 13.0198 11.211 13.2174 11.062 13.3627C10.9131 13.508 10.7105 13.5893 10.5 13.5893ZM9.60419 9.31696C9.59724 9.54942 9.69059 9.77415 9.86041 9.93589C10.0302 10.0986 10.2626 10.1848 10.5 10.1732C10.7353 10.1771 10.9627 10.0889 11.1306 9.92814C11.2984 9.76639 11.3938 9.54651 11.3938 9.31698C11.3938 9.08742 11.2984 8.86755 11.1306 8.70581C10.9628 8.54502 10.7353 8.45688 10.5 8.46076C10.2616 8.44913 10.0302 8.53533 9.86041 8.69806C9.68959 8.86078 9.59723 9.0845 9.60419 9.31696Z" fill="#647594"/>
</svg>
