<svg width="19" height="22" viewBox="0 0 19 22" fill="none" xmlns="http://www.w3.org/2000/svg">
<path d="M1.66879 1.66879V3.33758H16.6879V1.66879H1.66879ZM1.66879 0H16.6879C17.6095 0 18.3567 0.747142 18.3567 1.66879V3.33758C18.3567 4.25922 17.6095 5.00637 16.6879 5.00637H1.66879C0.747142 5.00637 0 4.25922 0 3.33758V1.66879C0 0.747142 0.747142 0 1.66879 0Z" fill="#647594"/>
<path d="M15.0187 5.00668L3.33719 5.00668L3.33719 19.1914C3.33719 19.6522 3.71076 20.0258 4.17159 20.0258H14.1843C14.6451 20.0258 15.0187 19.6522 15.0187 19.1914V5.00668ZM16.6875 19.1914C16.6875 20.5739 15.5668 21.6946 14.1843 21.6946H4.17159C2.78912 21.6946 1.6684 20.5739 1.6684 19.1914L1.6684 3.33789L16.6875 3.33789V19.1914Z" fill="#647594"/>
<path d="M12.5156 12.5157C12.5156 12.9765 12.1421 13.3501 11.6812 13.3501C11.2204 13.3501 10.8468 12.9765 10.8468 12.5157V10.4297C10.8468 10.1993 10.6601 10.0125 10.4296 10.0125C10.1992 10.0125 10.0124 10.1993 10.0124 10.4297V11.2641C10.0124 12.4162 9.07851 13.3501 7.92646 13.3501C6.7744 13.3501 5.84047 12.4162 5.84047 11.2641V9.17814C5.84047 8.71732 6.21404 8.34375 6.67487 8.34375C7.13569 8.34375 7.50926 8.71732 7.50926 9.17814V11.2641C7.50926 11.4945 7.69604 11.6813 7.92646 11.6813C8.15687 11.6813 8.34365 11.4945 8.34365 11.2641V10.4297C8.34365 9.27768 9.27758 8.34375 10.4296 8.34375C11.5817 8.34375 12.5156 9.27768 12.5156 10.4297V12.5157Z" fill="#647594"/>
<path d="M13.3492 10.0137C13.81 10.0137 14.1836 10.3872 14.1836 10.8481C14.1836 11.3089 13.81 11.6825 13.3492 11.6825H11.6804C11.2196 11.6825 10.846 11.3089 10.846 10.8481C10.846 10.3872 11.2196 10.0137 11.6804 10.0137H13.3492Z" fill="#647594"/>
<path d="M5.00463 11.6825C4.54381 11.6825 4.17024 11.3089 4.17024 10.8481C4.17024 10.3872 4.54381 10.0137 5.00463 10.0137H6.67342C7.13424 10.0137 7.50781 10.3872 7.50781 10.8481C7.50781 11.3089 7.13424 11.6825 6.67342 11.6825H5.00463Z" fill="#647594"/>
<path d="M10.0117 5.84107C10.0117 6.3019 9.63815 6.67547 9.17732 6.67547C8.7165 6.67547 8.34293 6.3019 8.34293 5.84107V4.17228C8.34293 3.71146 8.7165 3.33789 9.17732 3.33789C9.63815 3.33789 10.0117 3.71146 10.0117 4.17228V5.84107Z" fill="#647594"/>
<path d="M10.0117 17.5227C10.0117 17.9835 9.63815 18.3571 9.17732 18.3571C8.7165 18.3571 8.34293 17.9835 8.34293 17.5227V15.8539C8.34293 15.3931 8.7165 15.0195 9.17732 15.0195C9.63815 15.0195 10.0117 15.3931 10.0117 15.8539V17.5227Z" fill="#647594"/>
</svg>
