<svg width="38" height="37" viewBox="0 0 38 37" fill="none" xmlns="http://www.w3.org/2000/svg">
<rect x="0.902344" y="0.00976562" width="36.2854" height="36.3923" rx="18.1427" fill="#3DA1FD"/>
<path d="M11.5755 16.8418L11.379 17.1567C9.11882 20.9359 9.61019 25.8699 12.6565 29.0192C14.3271 30.9088 16.6855 31.8536 19.044 31.8536C19.044 31.8536 19.044 31.8536 11.5755 16.8418Z" fill="white"/>
<path opacity="0.6" d="M19.0427 21.3553L11.5742 16.7363C19.0427 31.8531 19.0427 31.8531 19.0427 31.8531C19.0427 28.5988 19.0427 24.8196 19.0427 21.3553Z" fill="white"/>
<path opacity="0.6" d="M26.5114 16.8418L26.7079 17.1567C28.9681 20.9359 28.4768 25.8698 25.4305 29.0192C23.6616 30.9088 21.4014 31.8536 19.043 31.8536C19.043 31.8536 19.043 31.8536 26.5114 16.8418Z" fill="white"/>
<path opacity="0.2" d="M19.043 21.3553L26.5114 16.7363C19.043 31.8531 19.043 31.8531 19.043 31.8531C19.043 28.5988 19.043 24.8196 19.043 21.3553Z" fill="white"/>
<path opacity="0.2" d="M19.043 11.1719V19.0452L25.5287 15.161L19.043 11.1719Z" fill="white"/>
<path opacity="0.6" d="M19.0443 11.1719L12.5586 15.161L19.0443 19.0452V11.1719Z" fill="white"/>
<path d="M19.0443 4.55859L12.5586 15.1613L19.0443 11.1722V4.55859Z" fill="white"/>
<path opacity="0.6" d="M19.043 11.1722L25.5287 15.1613L19.043 4.55859V11.1722Z" fill="white"/>
</svg>
