<svg width="1451" height="1146" viewBox="0 0 1451 1146" fill="none" xmlns="http://www.w3.org/2000/svg">
<path opacity="0.3" fill-rule="evenodd" clip-rule="evenodd" d="M708.688 0.48227C661.832 6.02049 625.462 18.6841 590.628 41.589C529.815 81.5781 490.901 141.917 478.351 215.679C472.461 250.304 475.764 307.643 485.44 338.719C487.598 345.651 487.716 348.53 485.986 351.977C484.083 355.767 482.59 356.296 475.276 355.775C466.94 355.18 466.699 355.324 462.765 363.351C460.557 367.851 452.252 378.916 444.306 387.938C436.36 396.961 428.261 408.041 426.309 412.56C424.198 417.445 414.562 429.363 402.553 441.941L382.349 463.105L356.84 455.821L348.397 464.493C343.754 469.265 336.544 474.905 332.375 477.028C328.207 479.152 314.281 491.016 301.426 503.394C279.985 524.039 277.464 525.899 270.898 525.899C264.742 525.899 262.893 526.997 257.709 533.733C254.393 538.042 248.204 545.269 243.955 549.796L236.231 558.026L225.236 556.878C215.515 555.863 213.385 556.296 206.812 560.628C202.726 563.323 186.152 571.623 169.981 579.072C142.086 591.924 138.685 592.992 103.591 599.915C83.2473 603.926 52.945 611.161 36.2527 615.991C-6.72816 628.428 -5.68678 627.954 9.69672 628.064C125.329 628.89 1251.36 629.102 1335.45 628.314L1451 627.231L1398.99 616.205C1370.39 610.141 1340.53 603.604 1332.64 601.68C1313.57 597.028 1259.02 577.58 1253.82 573.58C1251.55 571.835 1241.81 563.689 1232.16 555.474L1214.63 540.54L1202.82 554.389L1189.54 543.739C1182.24 537.881 1166.45 527.272 1154.45 520.162C1137.34 510.023 1128.76 503.325 1114.65 489.103C1104.76 479.131 1095.8 470.986 1094.74 471.003C1093.67 471.02 1088.18 476.5 1082.54 483.18L1072.27 495.323L1061.2 485.709C1055.11 480.423 1042.24 470.467 1032.58 463.59L1015.03 451.084L991.202 404.679H963.146L951.209 383.847L956 373.736C962.833 359.313 969.988 337.247 974.718 316.005C980.354 290.697 980.754 231.917 975.456 207.698C952.434 102.466 877.036 25.3948 777.246 5.08862C759.091 1.39522 722.033 -1.09548 708.688 0.48227ZM737.822 75.6251C739.523 80.0742 744.26 88.1581 748.349 93.5921C752.437 99.0243 757.695 109.235 760.034 116.281C770.545 147.955 784.94 182.442 790.259 188.689C793.396 192.373 801.689 206.893 808.69 220.956C823.224 250.153 858.887 317.267 868.087 332.737C871.484 338.45 881.647 359.317 890.672 379.11C899.7 398.902 913.738 426.849 921.87 441.214L936.656 467.329L955.926 480.205C1007.74 514.819 1010.02 515.991 1054.59 530.857C1077.55 538.517 1096.61 544.504 1096.96 544.163C1097.3 543.82 1079.01 536.375 1056.3 527.617C1016.05 512.087 1014.13 511.099 978.706 487.628L942.381 463.562L928.873 439.981C915.783 417.129 902.577 390.442 889.849 361.116C886.46 353.303 875.253 331.961 864.947 313.687C854.642 295.415 839.808 267.999 831.984 252.765L817.757 225.064L822.355 220.168C824.886 217.477 827.501 215.274 828.171 215.274C828.841 215.274 831.409 218.897 833.879 223.324C836.349 227.75 841.22 234.008 844.702 237.228C849.82 241.959 851.438 245.363 853.13 254.952C854.966 265.358 855.989 267.273 861.419 270.472C867.195 273.876 872.383 282.803 876.564 296.54C878.396 302.554 911.745 375.079 917.145 384.792C922.982 395.287 921.671 391.93 903.199 349.121C894.286 328.461 886.993 311.283 886.993 310.95C886.993 309.249 905.125 317.515 906.225 319.716C906.932 321.131 909.561 326.549 912.069 331.758C921.565 351.487 974.077 434.514 969.568 422.673C965.826 412.839 965.968 412.255 972.106 412.255C977.51 412.255 978.56 413.377 984.889 425.927C994.762 445.504 1010.35 473.485 1012.61 475.706C1013.67 476.748 1007.61 464.185 999.139 447.79C984.732 419.913 981.01 410.352 985.688 413.239C986.763 413.901 992.298 423.713 997.987 435.041C1007.54 454.053 1009.2 456.228 1019.66 463.319C1025.89 467.545 1034.23 474.966 1038.19 479.811C1042.14 484.656 1047.81 491.255 1050.78 494.475L1056.18 500.329L1052.51 494.647C1043.72 481.01 1044.4 481.032 1060.8 494.921L1073.42 505.612L1080.26 497.348C1084.03 492.804 1088.97 486.927 1091.23 484.29L1095.36 479.494L1114 497.611C1127.8 511.03 1137.8 518.722 1152.55 527.28C1172.39 538.786 1172.57 538.956 1195.98 568.354C1208.9 584.59 1219.86 597.873 1220.32 597.873C1220.78 597.873 1219.37 595.53 1217.18 592.664C1211.57 585.327 1193.31 559.579 1191.45 556.384C1189.53 553.082 1193.31 555.044 1199.39 560.499L1203.55 564.233L1216.1 550.59L1253.18 581.773L1287.75 593.596C1310.33 601.318 1337.45 608.735 1365.95 614.986C1389.94 620.247 1410.22 624.731 1411 624.945C1411.78 625.161 1364.84 625.034 1306.69 624.664L1200.94 623.992L1111.77 573.252L1068.31 573.25L1038.83 561.636C1015.27 552.357 1005.14 547.137 988.474 535.685C957.114 514.137 905.343 477.076 867.322 448.957L833.425 423.885L796.025 437.299L786.973 429.69C763.809 410.216 743.482 386.366 720.974 352.254C708.479 333.315 697.829 317.784 697.307 317.738C696.785 317.693 691.163 326.368 684.812 337.018C678.462 347.668 659.763 378.115 643.26 404.679C626.757 431.243 604.993 466.615 594.898 483.283C576.777 513.199 551.435 554.124 544.762 564.253C542.873 567.119 541.757 569.462 542.281 569.462C544.379 569.462 632.169 433.651 678.467 358.781C693.989 333.679 697.267 329.428 699.259 331.826C700.56 333.391 711.112 348.695 722.71 365.836C743.129 396.02 744.992 398.12 781.844 432.565C814.961 463.518 868.637 512.676 888.8 530.52C896.077 536.958 825.57 467.893 809.468 452.811L799.284 443.269L832.532 431.312L839.372 436.659C850.969 445.729 903.4 483.724 936.311 506.913C1003.52 554.262 1005.45 555.429 1036.57 567.432C1064.9 578.355 1066.37 578.703 1089.68 580.021C1103.64 580.811 1115.25 582.395 1117.46 583.806C1119.55 585.141 1137.05 594.814 1156.35 605.299L1191.44 624.367L861.702 624.378C649.514 624.386 532.189 623.734 532.597 622.552C532.944 621.543 551.416 597.371 573.643 568.841L614.058 516.964L628.652 513.059C636.68 510.909 650.075 507.693 658.421 505.913L673.596 502.672L721.018 456.203L743.78 476.883C789.824 518.711 843.365 562.068 843.365 557.526C843.365 557.094 838.885 553.703 833.406 549.995C823.469 543.263 805.549 527.018 750.912 475.218L722.004 447.809L670.971 495.855L645.728 502.331C631.845 505.892 618.777 509.564 616.691 510.493C614.604 511.419 594.118 537.383 571.166 568.187L529.435 624.196L482.376 624.293C445.258 624.369 435.6 623.89 436.656 622.022C437.726 620.128 437.483 620.128 435.44 622.022C433.468 623.85 411.675 624.39 339.964 624.39H247.043L258.177 612.078L244.634 624.48L177.062 623.443L211.932 600.583C231.111 588.011 248.985 576.381 251.65 574.739C254.315 573.097 266.977 562.111 279.786 550.33C292.596 538.547 308.133 525.232 314.313 520.741C323.437 514.112 328.581 507.934 341.675 487.864C356.158 465.67 358.236 463.289 362.055 464.507C364.392 465.253 370.471 466.965 375.562 468.31L384.819 470.759L405.639 449.557C420.592 434.327 427.993 425.154 431.914 416.991C434.915 410.74 442.098 400.512 447.878 394.262L458.387 382.898L454.276 394.262C446.901 414.655 441.924 424.561 429.461 443.649C419.228 459.325 409.842 469.642 372.969 505.737C348.65 529.547 326.104 550.639 322.87 552.609C316.498 556.488 318.224 557.552 324.749 553.77C326.933 552.505 349.38 532.717 374.631 509.799C418.291 470.176 421.189 467.117 433.684 447.47C440.909 436.107 448.952 421.192 451.552 414.324C454.155 407.456 459.54 393.315 463.521 382.898L470.76 363.957H478.645C486.511 363.957 486.553 363.917 497.801 346.443C504.002 336.811 511.889 322.534 515.33 314.717C520.985 301.87 522.098 300.506 526.933 300.506C531.533 300.506 532.281 301.253 532.281 305.844C532.281 313.81 526.979 330.135 519.714 344.541C511.785 360.262 503.799 378.163 504.715 378.163C505.324 378.163 521.415 348.795 530.884 330.406C532.876 326.536 537.633 310.473 541.456 294.71L548.404 266.051L559.093 274.467L561.991 270.336C563.584 268.065 566.942 263.909 569.453 261.1C573.827 256.212 574.135 256.144 576.735 259.5C580.095 263.837 581.912 262.765 589.253 252.111C596.167 242.078 599.659 241.116 597.936 249.721C595.137 263.693 585.935 278.67 541.131 342.175C539.35 344.7 539.456 344.7 542.082 342.175C547.966 336.518 590.284 278.967 596.214 268.561C599.558 262.691 603.323 253.941 604.579 249.115L606.861 240.338L614.147 241.313C618.794 241.936 621.433 241.531 621.433 240.194C621.433 238.065 632.56 231.436 633.897 232.769C634.891 233.764 612.079 261.182 599.6 273.989C591.212 282.596 585.844 291.646 568.702 326.078C549.176 365.296 546.759 369.171 527.647 391.928C515.125 406.84 504.649 417.481 500.32 419.686C494.964 422.415 485.589 433.723 460.705 467.477C442.777 491.796 425.727 514.468 422.815 517.86C415.305 526.607 367.778 549.381 350.916 552.313C339.404 554.315 298.772 571.085 289.181 577.794C287.203 579.177 279.033 587.457 271.027 596.195L256.468 612.078L272.502 596.727C282.243 587.401 292.23 579.752 297.949 577.241C317.333 568.727 343.576 559.634 353.341 558.047C363.403 556.412 414.245 533.888 421.115 528.02C423.092 526.333 441.137 503.147 461.213 476.496C488.507 440.267 499.243 427.41 503.765 425.54C507.601 423.953 517.652 413.742 531.232 397.641C551.697 373.372 553.546 370.433 572.826 331.487C589.031 298.754 594.992 288.615 603.102 279.992C608.656 274.086 617.924 263.288 623.696 255.996C629.468 248.704 637.603 238.635 641.775 233.622C648.954 224.99 650.622 221.223 655.434 202.792C657.217 195.964 658.38 194.767 665.237 192.716C672.54 190.532 673.494 189.378 680.784 173.947C685.055 164.903 693.358 143.474 699.236 126.327C709.748 95.6566 710.012 95.1471 715.45 95.0752C720.544 95.007 721.206 94.1622 723.844 84.3794C726.591 74.1913 730.335 67.5375 733.323 67.5375C734.097 67.5375 736.12 71.1778 737.822 75.6251ZM710.528 136.256C699.76 158.359 686.903 184.99 681.958 195.432C673.953 212.336 671.707 215.395 661.485 223.322C655.168 228.22 647.791 235.561 645.09 239.635C639.144 248.611 619.041 293.066 620.342 294.366C620.852 294.875 619.278 297.957 616.846 301.213C612.123 307.539 606.487 317.875 609.486 314.712C610.475 313.67 615.913 307.293 621.573 300.542C627.233 293.79 637.414 281.77 644.195 273.834C650.976 265.896 659.512 255.503 663.164 250.738C669.18 242.883 683.1 232.656 685.08 234.633C685.52 235.072 680.33 245.088 673.543 256.89C666.758 268.692 661.453 278.594 661.754 278.895C662.054 279.196 667.403 271.218 673.64 261.169C685.598 241.897 686.148 240.95 709.534 199.174C717.698 184.59 724.739 172.019 725.181 171.237C725.623 170.455 725.616 169.816 725.168 169.816C724.718 169.816 718.326 179.832 710.964 192.072C694.828 218.895 689.494 225.267 678.338 231.04C673.644 233.47 666.388 239.771 662.215 245.043C658.042 250.314 647.452 263.68 638.683 274.745C629.914 285.812 622.432 294.559 622.059 294.186C621.685 293.813 627.763 282.085 635.564 268.122C647.666 246.467 651.965 240.65 664.825 228.532L679.901 214.327L705.202 160.827C719.117 131.403 730.929 107.328 731.45 107.328C731.972 107.328 734.036 111.372 736.039 116.317C739.235 124.211 757.039 166.723 778.436 217.552C782.252 226.617 785.666 233.743 786.025 233.385C786.981 232.43 733.383 98.0886 731.61 96.9938C730.783 96.4824 721.295 114.15 710.528 136.256ZM726.073 192.973C724.037 197.426 715.399 215.433 706.873 232.989C698.348 250.543 691.677 265.211 692.049 265.582C692.419 265.953 700.778 250.098 710.625 230.347C720.469 210.597 729.1 194.439 729.804 194.439C730.508 194.439 736.439 203.176 742.985 213.853C761.447 243.963 798.072 300.506 799.111 300.506C800.126 300.506 794.441 290.765 786.4 278.725C777.707 265.707 733.347 190.46 733.347 188.73C733.347 183.609 729.263 185.992 726.073 192.973ZM703.946 267.62C665.901 315.869 656.166 325.72 637.837 334.52L622.381 341.941L611.059 360.525C602.559 374.475 595.108 383.542 581.174 396.885C565.978 411.439 556.744 423.036 530.234 460.876C507.94 492.698 495.07 509.284 488.915 514.129C483.998 517.997 457.903 537.784 430.924 558.098C362.288 609.777 362.814 610.124 433.644 559.893C467.55 535.848 497.098 514.485 499.306 512.423C501.512 510.358 517.149 489.124 534.054 465.232C559.546 429.205 568.129 418.638 584.361 403.293C598.858 389.587 606.717 380.289 614.676 367.423C627.123 347.303 626.89 347.534 641.022 341.293C650.087 337.291 651.496 337.06 649.956 339.831C648.949 341.641 637.964 364.004 625.543 389.527C594.319 453.696 580.781 476.504 554.443 509.322C541.827 525.041 540.099 526.425 520.774 536.295L500.402 546.701L475.409 575.601C461.357 591.852 457.706 596.627 467.069 586.509C498.839 552.181 503.481 548.273 521.891 540.377C541.052 532.159 547.182 527.003 567.268 502.223C586.46 478.544 598.625 456.893 630.409 389.83C654.872 338.215 659.12 330.491 668.609 320.354C681.049 307.069 696.971 287.761 715.875 263.036L729.32 245.454L733.875 253.566C736.38 258.028 752.767 288.1 770.29 320.394C821.883 415.47 814.328 398.512 746.878 267.836C737.871 250.386 730.075 236.163 729.554 236.228C729.032 236.294 717.509 250.42 703.946 267.62ZM694.543 369.925C673.72 412.187 655.295 452.031 656.581 452.031C657.02 452.031 666.735 432.853 678.173 409.414C690.057 385.059 700.069 366.798 701.535 366.798C702.948 366.798 707.91 370.7 712.562 375.467C717.213 380.235 722.725 384.991 724.811 386.034C726.898 387.078 725.318 385.074 721.298 381.581C717.279 378.089 710.845 371.545 706.996 367.039L700.002 358.849L694.543 369.925ZM808.273 389.527C809.891 392.652 811.642 395.209 812.164 395.209C812.685 395.209 811.788 392.652 810.17 389.527C808.552 386.402 806.801 383.845 806.279 383.845C805.758 383.845 806.655 386.402 808.273 389.527ZM923.092 398.05C923.092 399.092 923.919 401.223 924.93 402.785C925.941 404.348 926.768 404.774 926.768 403.732C926.768 402.691 925.941 400.56 924.93 398.997C923.919 397.435 923.092 397.008 923.092 398.05ZM652.852 457.158C651.824 459.857 652.04 460.075 653.914 458.219C655.212 456.932 655.794 455.404 655.21 454.822C654.626 454.239 653.565 455.29 652.852 457.158ZM649.059 464.734C648.03 467.433 648.247 467.651 650.121 465.795C651.418 464.509 652.001 462.98 651.416 462.399C650.832 461.815 649.772 462.867 649.059 464.734ZM335.008 487.243C335.008 490.83 318.163 511.447 312.425 514.885C308.675 517.131 293.656 530.7 279.05 545.036C256.011 567.651 247.286 574.616 213.167 597.61L173.839 624.113L99.4616 624.725C58.554 625.062 26.7438 625.051 28.7715 624.7C30.7992 624.35 40.7236 621.531 50.8244 618.437C60.927 615.344 84.9886 609.955 104.297 606.464C136.06 600.723 141.718 599.089 163.702 589.299C177.068 583.347 194.659 575.053 202.797 570.869C216.581 563.78 218.349 563.339 228.713 564.42L239.835 565.581L253.373 549.529C265.346 535.331 267.639 533.475 273.202 533.475C278.375 533.475 282.537 530.782 296.617 518.315C306.035 509.977 314.218 501.914 314.802 500.397C315.385 498.882 319.444 495.048 323.822 491.882C331.489 486.338 335.008 484.877 335.008 487.243ZM711.22 537.896C678.187 573.841 677.147 576.279 706.723 548.449L734.085 522.703L799.953 589.35L774.947 559.992C744.774 524.569 735.608 514.483 733.782 514.694C733.021 514.781 722.869 525.223 711.22 537.896ZM845.262 558.912C845.262 559.433 846.969 560.77 849.055 561.886C851.142 563.001 852.849 563.486 852.849 562.965C852.849 562.445 851.142 561.107 849.055 559.992C846.969 558.876 845.262 558.391 845.262 558.912ZM367.011 606.87C364.654 609.874 364.72 609.94 367.728 607.586C370.888 605.11 371.892 603.555 370.331 603.555C369.938 603.555 368.443 605.048 367.011 606.87ZM442.984 612.552L438.386 617.76L443.603 613.169C448.477 608.877 449.69 607.343 448.201 607.343C447.861 607.343 445.515 609.686 442.984 612.552ZM359.424 612.552C357.066 615.556 357.132 615.622 360.141 613.268C363.301 610.792 364.304 609.237 362.743 609.237C362.351 609.237 360.856 610.73 359.424 612.552ZM112.127 641.432C108.967 642.79 654.704 644.306 952.434 643.764C996.252 643.684 1102.95 643.542 1189.54 643.446C1291.56 643.334 1345.98 642.628 1344.13 641.444C1340.53 639.124 117.523 639.114 112.127 641.432ZM349.234 654.604C227.033 655.212 149.618 656.231 162.394 657.066C190.363 658.89 1279.72 658.543 1313.79 656.698C1328.51 655.901 1263.63 655.147 1161.09 654.924C1063.02 654.711 887.182 654.318 770.336 654.05C653.49 653.783 463.994 654.032 349.234 654.604ZM120.147 656.062C123.514 656.481 129.489 656.486 133.425 656.077C137.359 655.666 134.605 655.325 127.302 655.316C119.999 655.308 116.778 655.643 120.147 656.062ZM700.164 669.519C699.733 669.949 600.112 670.284 478.784 670.266C357.455 670.247 244.527 670.838 227.835 671.58C211.143 672.321 436.489 672.904 728.605 672.876C1020.72 672.849 1227.29 672.256 1187.64 671.559C1148 670.864 1050.69 670.089 971.403 669.839C892.114 669.591 798.825 669.241 764.093 669.063C729.362 668.885 700.592 669.091 700.164 669.519ZM187.527 673.046C189.354 673.523 192.339 673.523 194.166 673.046C195.993 672.571 194.498 672.18 190.846 672.18C187.195 672.18 185.7 672.571 187.527 673.046ZM1266.01 673.035C1267.38 673.582 1269.01 673.514 1269.64 672.885C1270.27 672.256 1269.15 671.809 1267.15 671.891C1264.94 671.982 1264.5 672.43 1266.01 673.035ZM465.891 686.893C270.306 687.691 245.81 688.066 311.134 689.261C405.051 690.981 1097.47 690.678 1173.42 688.884C1212.49 687.962 1178.31 687.443 1050.12 687.007C735.104 685.939 701.702 685.933 465.891 686.893ZM764.171 688.231C761.825 688.681 757.982 688.681 755.635 688.231C753.289 687.778 755.209 687.409 759.903 687.409C764.598 687.409 766.518 687.778 764.171 688.231ZM498.515 697.773C507.591 698.12 522.956 698.121 532.658 697.777C542.362 697.432 534.936 697.148 516.157 697.146C497.378 697.144 489.44 697.426 498.515 697.773ZM923.507 697.775C932.637 698.121 947.574 698.121 956.702 697.775C965.832 697.426 958.362 697.142 940.105 697.142C921.847 697.142 914.379 697.426 923.507 697.775ZM308.983 705.334C313.969 705.726 321.652 705.72 326.054 705.325C330.457 704.927 326.377 704.607 316.987 704.612C307.598 704.618 303.996 704.944 308.983 705.334ZM358.718 705.993C390.62 707.862 1041.54 707.891 1113.67 706.027C1144.54 705.23 985.546 704.593 751.367 704.578C521.848 704.561 345.156 705.199 358.718 705.993ZM460.761 714.819C468.893 715.176 481.697 715.174 489.214 714.816C496.73 714.456 490.076 714.166 474.426 714.168C458.777 714.17 452.628 714.463 460.761 714.819ZM966.186 714.812C972.708 715.183 983.378 715.183 989.897 714.812C996.418 714.442 991.083 714.139 978.042 714.139C965.001 714.139 959.667 714.442 966.186 714.812ZM327.93 722.299C329.776 722.78 332.337 722.748 333.621 722.229C334.905 721.71 333.395 721.318 330.265 721.356C327.136 721.394 326.085 721.818 327.93 722.299ZM344.334 722.977C341.18 724.924 735.331 726.063 958.125 724.748C1048.89 724.214 1115.04 723.479 1105.13 723.115C1065.11 721.649 346.698 721.519 344.334 722.977ZM453.993 731.824C457.36 732.243 463.336 732.248 467.271 731.839C471.206 731.428 468.451 731.087 461.148 731.078C453.846 731.07 450.625 731.406 453.993 731.824ZM509.706 742.196C625.198 743.126 804.311 743.126 922.272 742.196C1120.44 740.632 1110.35 740.55 718.172 740.55C329.342 740.55 317.348 740.645 509.706 742.196ZM436.489 749.397L425.108 750.655L436.964 750.973C443.815 751.157 448.819 750.492 448.819 749.397C448.819 748.356 448.605 747.647 448.345 747.821C448.085 747.998 442.749 748.706 436.489 749.397ZM977.568 748.757C978.872 749.284 981.006 749.284 982.31 748.757C983.615 748.232 982.547 747.802 979.939 747.802C977.33 747.802 976.264 748.232 977.568 748.757ZM988.949 748.757C990.254 749.284 992.388 749.284 993.691 748.757C994.996 748.232 993.928 747.802 991.32 747.802C988.711 747.802 987.645 748.232 988.949 748.757ZM470.054 750.81C481.212 751.143 499.99 751.146 511.785 750.812C523.58 750.479 514.45 750.206 491.498 750.204C468.546 750.202 458.897 750.475 470.054 750.81ZM933.963 750.736C936.322 751.189 939.737 751.172 941.55 750.698C943.363 750.225 941.432 749.854 937.259 749.875C933.086 749.895 931.603 750.284 933.963 750.736ZM981.183 758.258C980.912 758.528 832.209 758.943 650.735 759.18C469.261 759.417 333.158 760.18 348.286 760.873C413.814 763.881 1071.09 763.807 1111.77 760.788C1123.04 759.951 1108.52 759.371 1069.09 759.082C1036.23 758.839 1003.12 758.443 995.508 758.203C987.9 757.962 981.454 757.987 981.183 758.258ZM428.902 777.808C429.547 778.85 430.45 779.702 430.911 779.702C431.372 779.702 431.747 778.85 431.747 777.808C431.747 776.766 430.842 775.914 429.738 775.914C428.634 775.914 428.257 776.766 428.902 777.808ZM433.644 777.808C433.644 778.85 434.498 779.702 435.541 779.702C436.584 779.702 437.438 778.85 437.438 777.808C437.438 776.766 436.584 775.914 435.541 775.914C434.498 775.914 433.644 776.766 433.644 777.808ZM439.335 777.965C439.335 778.573 440.403 779.111 441.706 779.162C443.011 779.212 459.868 779.897 479.169 780.685C519.498 782.331 948.561 782.56 965.712 780.945C971.972 780.354 985.132 779.833 994.956 779.787C1004.78 779.74 1012.24 779.124 1011.53 778.42C1009.97 776.857 439.335 776.405 439.335 777.965ZM413.253 788.642C397.344 788.987 384.326 789.89 384.326 790.646C384.326 791.404 386.674 792.089 389.542 792.173C392.41 792.254 411.316 792.972 431.552 793.769C473.702 795.425 582.009 793.031 563.579 790.849C549.652 789.199 452.871 787.778 413.253 788.642ZM902.167 789.032L863.282 790.119L891.735 792.013C920.064 793.9 1051.68 793.932 1053.56 792.053C1054.1 791.51 1054.08 790.6 1053.51 790.032C1051.96 788.485 946.681 787.79 902.167 789.032ZM1055.81 791.012C1055.81 792.084 1059.17 792.39 1063.87 791.748C1074.93 790.241 1075.26 789.172 1064.67 789.172C1059.8 789.172 1055.81 790 1055.81 791.012ZM482.331 799.861C482.002 800.141 436.743 802.185 427.367 802.342C424.437 802.391 422.547 803.253 423.17 804.259C424.666 806.674 1011.5 806.961 1013 804.548C1013.61 803.556 1004.12 802.294 990.84 801.603C971.94 800.62 483.399 798.946 482.331 799.861ZM571.166 824.576C648.23 827.203 829.165 826.531 896.477 823.366C911.604 822.654 827.099 822.038 708.688 821.998L493.395 821.924L571.166 824.576ZM407.088 827.023C400.307 827.722 395.185 828.501 395.707 828.754C396.229 829.008 405.618 829.635 416.572 830.146C427.527 830.66 446.306 831.76 458.303 832.592C478.683 834.005 568.45 833.444 576.857 831.851C578.943 831.455 592.174 830.923 606.258 830.667C630.834 830.222 630.261 830.146 592.031 828.802C531.165 826.658 420.918 825.597 407.088 827.023ZM886.044 827.269C873.525 827.91 851.332 828.684 836.726 828.989L810.17 829.544L845.262 831.139C864.562 832.016 888.463 832.897 898.374 833.097C908.471 833.304 917.007 834.346 917.788 835.467C918.68 836.751 919.192 836.537 919.211 834.872C919.233 832.775 919.791 832.728 922.084 834.63C923.649 835.927 924.93 836.243 924.93 835.334C924.932 834.427 932.826 833.603 942.476 833.507C973.222 833.198 1035.59 830.393 1044.43 828.919C1051.89 827.679 1050.82 827.43 1035.9 826.959C1003.03 825.921 908.6 826.118 886.044 827.269ZM387.645 828.307C388.95 828.834 391.084 828.834 392.387 828.307C393.692 827.783 392.625 827.353 390.016 827.353C387.408 827.353 386.342 827.783 387.645 828.307ZM805.073 830.241C806.441 830.789 808.078 830.72 808.707 830.092C809.337 829.463 808.218 829.016 806.219 829.097C804.009 829.188 803.559 829.637 805.073 830.241ZM479.169 840.871C478.647 841.352 470.468 842.322 460.991 843.022C451.514 843.725 438.407 845.055 431.863 845.977C419.452 847.729 413.615 850.161 423.31 849.542C429.778 849.129 472.55 851.697 478.205 852.839C483.672 853.943 680.723 853.714 681.836 852.602C682.346 852.093 670.886 851.619 656.367 851.549C641.847 851.477 627.408 851.133 624.278 850.78C621.148 850.43 609.653 849.591 598.731 848.919C587.811 848.246 578.422 847.193 577.866 846.581C577.312 845.968 584.112 846.005 592.98 846.666C601.848 847.326 664.089 847.871 731.293 847.877C798.497 847.882 853.126 848.21 852.692 848.606C852.257 849 834.829 849.934 813.964 850.68C793.098 851.426 775.67 852.383 775.236 852.803C774.448 853.568 830.963 854.097 899.322 853.966C929.791 853.907 987.027 851.835 991.794 850.619C992.577 850.419 1001.47 850.15 1011.55 850.019C1032 849.756 1033.92 848.663 1016.88 846.985C1010.64 846.371 1003.41 845.511 1000.8 845.072C982.651 842.024 951.512 841.374 863.282 842.206C723.415 843.524 664.03 843.397 565.476 841.573C518.528 840.704 479.69 840.388 479.169 840.871ZM410.408 849.142C411.713 849.669 413.847 849.669 415.15 849.142C416.455 848.617 415.387 848.187 412.779 848.187C410.17 848.187 409.104 848.617 410.408 849.142ZM469.053 864.268C468.781 864.508 431.417 866.457 421.789 866.734C416.88 866.874 417.752 869.842 422.737 869.956C430.546 870.134 464.688 872.751 483.911 874.647C504.355 876.663 668.543 879.314 666.935 877.602C665.823 876.42 654.736 875.149 629.326 873.291C619.581 872.579 612.508 871.443 613.603 870.766C616.628 868.901 795.244 868.573 808.273 870.41L819.654 872.015L810.644 872.5C805.69 872.767 800.781 873.196 799.737 873.458C798.694 873.719 783.971 874.168 767.016 874.456L736.193 874.981L771.284 876.685C804.61 878.305 939.27 877.422 953.383 875.49C967.687 873.534 998.81 871.276 1017.4 870.846C1032.82 870.49 1029.15 867.429 1012.77 866.995C1004.76 866.785 997.316 866.071 996.246 865.41C994.675 864.44 470.14 863.304 469.053 864.268ZM679.881 877.593C681.248 878.14 682.885 878.072 683.515 877.443C684.145 876.814 683.026 876.367 681.026 876.449C678.816 876.539 678.367 876.988 679.881 877.593ZM765.594 885.752C772.375 886.586 782.191 888.247 787.408 889.444C792.624 890.641 797.96 891.724 799.263 891.851C800.568 891.978 801.634 892.709 801.634 893.474C801.634 896.01 757.544 897.675 725.775 896.34C688.346 894.768 653.543 890.482 651.449 887.188C650.257 885.317 649.937 885.33 649.914 887.256C649.891 889.184 649.009 889.222 645.675 887.44C642.533 885.762 626.507 885.508 582.604 886.442C550.232 887.129 521.184 888.052 518.054 888.491C514.924 888.93 499.6 889.807 483.998 890.44C468.396 891.074 455.238 891.987 454.754 892.468C454.272 892.951 455.513 893.459 457.512 893.597C465.38 894.143 476.885 895.035 488.653 896.012C574.846 903.172 614.198 904.38 737.141 903.645C802.345 903.255 860.816 902.513 867.076 901.996C873.335 901.479 892.541 900.141 909.755 899.024C926.969 897.904 946.174 896.571 952.434 896.06C958.694 895.548 970.073 894.8 977.723 894.399C1005.99 892.912 996.845 891.804 930.62 888.688C873.65 886.008 749.738 883.803 765.594 885.752ZM573.82 911.114C573.402 911.473 558.552 912.369 540.816 913.104C523.081 913.841 506.009 914.725 502.879 915.07C499.749 915.415 492.282 915.782 486.282 915.887C474.316 916.093 471.05 918.955 482.488 919.211C486.401 919.298 495.576 919.911 502.879 920.574C510.182 921.237 526.827 922.662 539.868 923.737C552.909 924.815 566.993 926.022 571.166 926.421C575.339 926.821 582.595 927.238 587.289 927.349C602.356 927.709 591.628 930.562 558.837 934.918C541.623 937.204 525.404 939.441 522.796 939.89C520.188 940.339 513.786 941.229 508.57 941.869C497.109 943.277 495.188 944.434 503.985 944.631C507.549 944.71 511.937 945.057 513.733 945.402C515.527 945.746 527.051 946.576 539.341 947.245C551.628 947.913 564.243 948.771 567.372 949.15C590.556 951.949 632.025 953.004 718.172 952.985C827.359 952.961 844.602 952.37 932.092 945.64C941.675 944.903 944.243 943.191 937.957 941.731C930.747 940.057 875.456 933.869 850.952 931.994C829.979 930.389 824.757 927.573 842.616 927.495C854.475 927.446 870.919 926.406 917.342 922.77C924.124 922.239 937.781 921.283 947.692 920.644C964.83 919.54 968.301 918.909 966.503 917.229C966.069 916.822 955.042 915.904 942.001 915.186C928.961 914.47 907.621 913.229 894.58 912.432C871.548 911.021 575.333 909.805 573.82 911.114ZM470.633 917.968C471.278 919.01 472.181 919.862 472.641 919.862C473.102 919.862 473.478 919.01 473.478 917.968C473.478 916.926 472.573 916.074 471.469 916.074C470.365 916.074 469.988 916.926 470.633 917.968ZM783.614 918.803C785.701 919.226 792.529 919.785 798.789 920.044L810.17 920.516L797.84 921.756C788.111 922.735 787.112 923.092 793.098 923.444C800.073 923.855 800.312 924.039 796.067 925.732C793.527 926.745 790.327 927.145 788.954 926.618C787.582 926.094 786.459 926.49 786.459 927.497C786.459 928.507 789.232 929.463 792.624 929.62C796.016 929.779 799.642 930.107 800.686 930.35C801.729 930.592 805.073 930.888 808.116 931.009C815.356 931.295 813.89 932.484 804.828 933.677C797.059 934.702 793.292 936.757 798.472 937.145C800.211 937.276 802.488 937.594 803.531 937.856C804.574 938.117 805.997 938.435 806.693 938.566C810.551 939.288 803.996 940.915 786.359 943.608C762.804 947.205 706.594 947.928 685.926 944.898C678.101 943.752 665.724 942.337 658.421 941.754C651.119 941.172 638.81 939.702 631.067 938.49C619.684 936.706 617.833 935.975 621.383 934.662C627.224 932.505 625.185 930.848 616.691 930.848C606.869 930.848 610.012 928.986 620.866 928.374C625.871 928.094 639.563 926.001 651.287 923.726C663.014 921.449 683.073 918.86 695.864 917.97C717.34 916.476 774.822 917.021 783.614 918.803ZM969.402 917.8C970.578 919.701 975.284 919.459 977.355 917.392C978.08 916.667 976.348 916.074 973.504 916.074C970.661 916.074 968.813 916.851 969.402 917.8ZM773.181 926.277C773.181 926.679 775.742 927.383 778.872 927.842C782.002 928.3 784.562 927.973 784.562 927.111C784.562 926.249 782.002 925.544 778.872 925.544C775.742 925.544 773.181 925.874 773.181 926.277ZM642.298 929.332C632.818 931.325 642.543 931.408 653.679 929.429C661.379 928.062 661.565 927.914 655.576 927.925C651.925 927.931 645.95 928.565 642.298 929.332ZM630.562 932.52C631.93 933.068 633.567 932.999 634.197 932.371C634.826 931.742 633.707 931.295 631.708 931.376C629.498 931.467 629.049 931.916 630.562 932.52ZM649.59 962.376C649.231 962.689 637.841 963.427 624.278 964.016C578.027 966.03 551.625 968.1 549.87 969.854C549.377 970.346 549.591 971.75 550.348 972.971C551.369 974.619 552.144 974.53 553.355 972.625C554.32 971.102 554.997 970.928 555.014 972.193C555.033 973.587 559.347 974.248 567.374 974.087C574.156 973.953 579.704 974.475 579.704 975.248C579.702 976.023 583.755 976.635 588.712 976.61C604.684 976.527 622.654 977.938 625.134 979.468C626.547 980.339 628.233 979.875 629.202 978.347C630.445 976.39 630.866 976.341 630.889 978.15C630.908 979.731 633.366 980.447 638.03 980.224C641.943 980.036 652.399 980.474 661.267 981.193C670.135 981.915 682.79 982.894 689.391 983.37C701.949 984.275 708.789 986.592 705.283 988.755C704.187 989.433 692.707 990.455 679.776 991.027C666.844 991.601 654.614 992.38 652.6 992.755C650.586 993.132 640.991 993.505 631.279 993.584C621.567 993.666 614.016 994.369 614.5 995.151C614.983 995.933 607.992 996.49 598.963 996.39C580.383 996.183 578.575 996.558 576.891 1000.98C575.923 1003.52 576.157 1003.68 578.073 1001.78C580.667 999.208 586.197 998.475 584.694 1000.9C584.188 1001.72 585.356 1002.39 587.289 1002.39C589.222 1002.39 590.277 1001.51 589.632 1000.43C588.985 999.348 589.751 999.511 591.333 1000.79C593.285 1002.37 594.829 1002.49 596.14 1001.18C597.453 999.871 598.841 1000.18 600.467 1002.13C602.32 1004.36 603.729 1004.55 606.687 1002.97C609.452 1001.49 610.152 1001.51 609.221 1003.01C608.502 1004.17 609.19 1005.09 610.776 1005.09C612.341 1005.09 614.175 1004.2 614.851 1003.11C615.685 1001.76 616.968 1001.86 618.853 1003.42C620.41 1004.71 628.855 1005.98 638.127 1006.31C647.202 1006.63 658.469 1007.25 663.164 1007.69C667.858 1008.12 673.297 1007.63 675.248 1006.6C677.288 1005.52 678.329 1005.47 677.695 1006.5C677.081 1007.49 680.336 1008.41 685.053 1008.59C690.742 1008.81 693.523 1008.13 693.542 1006.53C693.563 1004.93 694.031 1004.82 694.964 1006.18C697.233 1009.49 702.375 1010.64 704.663 1008.36C706.235 1006.79 706.791 1006.88 706.791 1008.73C706.791 1010.68 707.393 1010.74 709.468 1009.02C711.488 1007.35 712.476 1007.34 713.499 1008.99C714.487 1010.59 715.293 1010.49 716.484 1008.61C717.381 1007.2 718.127 1006.94 718.144 1008.04C718.159 1009.15 720.794 1009.87 724 1009.64C730.142 1009.22 733.973 1007.16 729.396 1006.74C727.918 1006.61 724.574 1006.3 721.966 1006.06C697.117 1003.74 684.463 1002.63 681.749 1002.52C679.972 1002.45 678.892 1002.02 679.348 1001.56C679.803 1001.11 678.796 999.727 677.109 998.496C674.748 996.77 674.645 996.213 676.665 996.068C700.786 994.346 711.786 992.842 712.928 991.111C713.929 989.59 714.329 989.582 714.35 991.086C714.369 992.471 720.627 993.156 732.873 993.115C760.632 993.02 775.408 994.088 781.575 996.634L787.121 998.926L782.823 1001.22C780.459 1002.48 772.246 1003.99 764.573 1004.57C755.072 1005.29 750.292 1006.48 749.594 1008.3C748.919 1010.05 749.362 1010.48 750.882 1009.54C754.226 1007.48 759.903 1007.33 759.903 1009.31C759.903 1010.24 760.711 1010.5 761.698 1009.89C762.686 1009.28 774.849 1008.32 788.728 1007.74C802.607 1007.17 819.085 1006.3 825.345 1005.82C831.604 1005.33 838.642 1004.88 840.981 1004.81C843.321 1004.75 844.765 1003.93 844.188 1003C843.613 1002.07 844.046 1001.31 845.15 1001.31C846.254 1001.31 847.159 1002.15 847.159 1003.18C847.159 1004.21 849.293 1004.87 851.901 1004.66C854.509 1004.44 856.643 1003.77 856.643 1003.17C856.643 1002.56 859.746 1002.43 863.54 1002.87C868.644 1003.47 870.065 1003.07 869.003 1001.36C867.918 999.602 868.449 999.507 871.182 1000.97C874.09 1002.52 874.798 1002.26 874.798 999.626C874.798 996.973 872.994 996.336 865.247 996.255C859.993 996.2 848.012 995.583 838.623 994.884C829.233 994.183 812.162 993.226 800.686 992.755C777.214 991.795 768.733 990.548 767.804 987.925C767.453 986.938 766.254 986.694 765.139 987.381C763.9 988.147 763.668 987.732 764.543 986.321C765.33 985.048 766.449 984.483 767.032 985.065C767.614 985.646 769.056 985.321 770.237 984.341C771.417 983.364 780.886 982.065 791.277 981.455C801.668 980.847 814.011 979.862 818.706 979.267C823.401 978.673 834.924 977.824 844.313 977.381C853.703 976.938 866.888 976.311 873.612 975.987C880.72 975.644 886.149 974.477 886.575 973.201C886.979 971.99 888.142 971.002 889.159 971.002C890.177 971.002 890.591 971.68 890.077 972.509C889.565 973.337 891.363 973.977 894.076 973.93C896.788 973.881 899.402 972.657 899.885 971.208C900.546 969.229 899.563 968.875 895.932 969.784C893.275 970.45 890.817 970.146 890.47 969.109C890.122 968.072 881.729 966.742 871.818 966.155C861.907 965.566 849.53 964.664 844.313 964.147C833.947 963.12 650.648 961.454 649.59 962.376ZM543.662 971.113C543.662 972.216 544.515 972.593 545.559 971.949C546.602 971.305 547.455 970.403 547.455 969.943C547.455 969.483 546.602 969.108 545.559 969.108C544.515 969.108 543.662 970.011 543.662 971.113ZM778.68 970.981C804.658 973.919 805.515 975.932 781.491 977.582C770.139 978.36 759.145 979.326 757.058 979.726C751.284 980.832 718.614 980.966 716.865 979.892C716.02 979.373 705.953 978.383 694.496 977.693C683.041 977.002 673.249 976.021 672.737 975.511C670.797 973.572 676.895 971.659 686.396 971.225C691.827 970.977 696.573 970.473 696.943 970.104C698.572 968.475 762.608 969.163 778.68 970.981ZM902.196 972.422C902.213 974.345 902.81 974.919 903.619 973.788C904.385 972.716 906.934 971.96 909.281 972.108C911.627 972.257 913.549 971.642 913.549 970.742C913.549 969.844 910.988 969.108 907.858 969.108C903.693 969.108 902.175 969.996 902.196 972.422ZM665.814 997.202C666.35 998.071 665.586 998.782 664.112 998.782C662.638 998.782 661.874 998.071 662.411 997.202C662.947 996.335 663.714 995.624 664.112 995.624C664.51 995.624 665.277 996.335 665.814 997.202ZM560.733 999.524C560.733 1000.63 561.587 1001 562.63 1000.36C563.674 999.716 564.527 998.814 564.527 998.354C564.527 997.893 563.674 997.518 562.63 997.518C561.587 997.518 560.733 998.422 560.733 999.524ZM571.185 999.443C571.841 1000.5 573.171 1000.88 574.142 1000.28C576.773 998.655 576.284 997.518 572.951 997.518C571.325 997.518 570.531 998.384 571.185 999.443ZM877.508 999.301C877.508 1000.28 878.352 1001.6 879.384 1002.24C880.458 1002.9 880.777 1002.14 880.13 1000.46C878.868 997.177 877.508 996.577 877.508 999.301ZM741.688 1007.3C741.151 1008.17 741.991 1008.88 743.556 1008.88C745.121 1008.88 746.841 1008.17 747.378 1007.3C747.915 1006.44 747.075 1005.73 745.51 1005.73C743.945 1005.73 742.224 1006.44 741.688 1007.3ZM734.889 1008.28C736.257 1008.83 737.894 1008.76 738.524 1008.13C739.154 1007.5 738.034 1007.06 736.035 1007.14C733.825 1007.23 733.376 1007.68 734.889 1008.28ZM706.581 1017.3C706.173 1017.71 698.159 1018.52 688.769 1019.1C664.641 1020.6 650.916 1022.29 650.329 1023.83C650.053 1024.56 646.735 1024.8 642.958 1024.36C638.937 1023.89 636.549 1024.3 637.198 1025.35C637.835 1026.38 635.934 1026.79 632.713 1026.32C629.13 1025.79 627.123 1026.33 627.123 1027.81C627.123 1029.12 628.398 1029.63 630.067 1028.99C631.755 1028.35 632.516 1028.67 631.852 1029.74C631.205 1030.78 633.049 1031.74 636.021 1031.9C642.698 1032.26 644.227 1032.5 648.937 1033.94C661.125 1037.66 661.758 1037.73 660.279 1035.13C659.097 1033.06 659.307 1033.02 661.367 1034.93C664.782 1038.09 667.98 1037.96 665.326 1034.77C663.695 1032.81 664.057 1032.31 666.952 1032.52C668.998 1032.67 671.331 1033.52 672.136 1034.4C672.938 1035.28 672.53 1035.39 671.225 1034.64C669.899 1033.88 668.854 1034.26 668.854 1035.51C668.854 1036.85 670.706 1037.38 673.539 1036.84C676.115 1036.35 677.838 1036.57 677.367 1037.33C676.897 1038.09 678.76 1038.71 681.508 1038.71C685.562 1038.71 685.913 1038.38 683.369 1036.96C681.647 1036 680.235 1034.34 680.235 1033.28C680.235 1032.21 681.582 1032.69 683.229 1034.33C688.168 1039.26 692.7 1041 702.827 1041.87C710.378 1042.51 712.888 1042 714.456 1039.52C716.114 1036.89 716.257 1037.08 715.289 1040.61C714.346 1044.06 714.893 1044.87 718.157 1044.87C720.375 1044.87 721.699 1044.08 721.099 1043.11C720.498 1042.14 720.896 1040.8 721.981 1040.13C723.068 1039.45 723.723 1040.03 723.436 1041.42C723.066 1043.2 725.39 1043.94 731.45 1043.98C741.604 1044.05 745.077 1043.18 743.67 1040.91C743.101 1039.98 744.099 1039.79 745.889 1040.48C748.272 1041.39 748.729 1041.05 747.593 1039.22C746.58 1037.58 746.773 1037.16 748.147 1038.01C749.306 1038.72 749.827 1040.42 749.306 1041.77C748.786 1043.13 749.639 1044.24 751.202 1044.24C752.765 1044.24 753.492 1043.31 752.817 1042.19C752.141 1041.06 752.949 1041.24 754.613 1042.58C757.085 1044.58 757.817 1044.58 758.621 1042.58C759.162 1041.24 759.672 1041.05 759.753 1042.16C759.958 1044.94 775.439 1043.55 777.324 1040.58C778.498 1038.74 778.821 1038.75 778.843 1040.63C778.864 1042.34 782.411 1042.95 791.201 1042.75C797.983 1042.61 803.531 1041.7 803.531 1040.73C803.531 1039.76 802.544 1039.57 801.34 1040.31C799.984 1041.15 799.665 1040.84 800.505 1039.48C802 1037.06 799.301 1036.46 797.051 1038.71C795.242 1040.52 782.55 1040.91 783.658 1039.12C784.113 1038.38 787.131 1038.09 790.365 1038.47C794.453 1038.94 795.983 1038.43 795.384 1036.8C794.91 1035.51 793.347 1034.76 791.913 1035.14C790.479 1035.52 786.317 1036.25 782.666 1036.76C779.014 1037.27 775.7 1038 775.304 1038.37C774.906 1038.75 773.198 1038.32 771.51 1037.43C768.746 1035.97 757.822 1034.32 739.038 1032.53C735.386 1032.18 732.399 1031.77 732.399 1031.61C732.399 1030.9 724.354 1029.26 719.775 1029.03C717.008 1028.89 715.137 1028.13 715.621 1027.35C716.103 1026.57 715.545 1025.93 714.379 1025.93C713.212 1025.93 712.708 1025.2 713.258 1024.31C713.808 1023.43 717.913 1022.96 722.38 1023.27C729.997 1023.81 735.415 1024.34 758.955 1026.85C792.114 1030.38 801.186 1030.03 798.538 1025.32C797.692 1023.82 798.115 1023.86 799.832 1025.45C801.947 1027.41 801.754 1028.33 798.686 1030.86C795.293 1033.66 795.411 1033.66 800.145 1030.86C806.056 1027.37 808.055 1027.01 806.376 1029.72C805.731 1030.76 806.207 1031.61 807.435 1031.61C808.702 1031.61 809.252 1030.04 808.709 1027.97C807.987 1025.21 808.514 1024.59 810.858 1025.42C812.566 1026.02 815.191 1027.45 816.689 1028.59C818.861 1030.24 819.17 1030.01 818.209 1027.45C817.306 1025.04 817.771 1024.52 820.062 1025.4C822.099 1026.18 822.664 1025.83 821.75 1024.36C819.626 1020.93 821.729 1021.74 824.576 1025.46C825.973 1027.28 826.403 1028.17 825.531 1027.44C824.658 1026.71 822.706 1027.35 821.194 1028.86C819.263 1030.78 817.444 1031.07 815.096 1029.82C810.471 1027.34 810.566 1032.95 815.229 1037.61C817.141 1039.52 818.706 1040.34 818.706 1039.44C818.706 1038.53 821.433 1038.11 824.768 1038.49C830.447 1039.16 830.595 1039.03 827.139 1036.45C823.569 1033.78 823.588 1033.73 827.716 1034.77C830.062 1035.36 831.984 1034.97 831.984 1033.9C831.984 1032.84 833.905 1032.33 836.252 1032.77C840.18 1033.52 840.218 1033.45 836.726 1031.89C834.48 1030.88 831.578 1030.9 829.613 1031.92C827.788 1032.86 826.293 1033.08 826.293 1032.41C826.293 1031.73 824.203 1032.54 821.65 1034.21C819.097 1035.88 816.566 1036.54 816.027 1035.67C815.491 1034.8 819.256 1032.12 824.396 1029.72C829.537 1027.31 833.342 1024.7 832.853 1023.9C832.361 1023.11 833.033 1022.08 834.344 1021.62C835.654 1021.15 833.738 1020.75 830.087 1020.72C826.435 1020.69 818.878 1020.08 813.294 1019.36C797.984 1017.39 749.893 1016.96 753.232 1018.83C754.814 1019.71 756.11 1021.28 756.11 1022.31C756.11 1023.34 754.315 1022.51 752.124 1020.47C748.706 1017.29 745.476 1016.78 729.413 1016.88C719.115 1016.94 711.082 1017.63 711.564 1018.4C712.046 1019.18 710.955 1020.98 709.142 1022.4C706.196 1024.71 706.107 1024.65 708.307 1021.84C710.384 1019.18 708.817 1015.07 706.581 1017.3ZM840.533 1022.12C839.869 1023.19 840.63 1023.51 842.318 1022.86C845.603 1021.61 846.205 1020.25 843.477 1020.25C842.494 1020.25 841.17 1021.09 840.533 1022.12ZM852.849 1022.89C852.849 1023.29 854.173 1024.14 855.793 1024.76C857.481 1025.4 858.242 1025.09 857.578 1024.01C856.465 1022.21 852.849 1021.35 852.849 1022.89ZM660.123 1027.51C660.66 1028.38 659.895 1029.09 658.421 1029.09C656.948 1029.09 656.183 1028.38 656.72 1027.51C657.257 1026.64 658.023 1025.93 658.421 1025.93C658.82 1025.93 659.586 1026.64 660.123 1027.51ZM691.616 1028.21C691.616 1029.16 690.822 1029.45 689.85 1028.85C688.879 1028.25 687.572 1028.59 686.944 1029.6C686.317 1030.62 684.551 1030.97 683.02 1030.38C678.473 1028.64 679.845 1026.89 685.93 1026.68C689.058 1026.56 691.616 1027.25 691.616 1028.21ZM705.843 1027.82C706.488 1028.86 706.061 1029.72 704.894 1029.72C703.728 1029.72 703.265 1030.51 703.864 1031.48C704.466 1032.45 704.259 1033.67 703.407 1034.2C702.556 1034.73 701.859 1033.08 701.859 1030.54C701.859 1025.79 703.775 1024.48 705.843 1027.82ZM857.673 1029.59C857.072 1030.56 857.58 1031.97 858.802 1032.72C860.126 1033.54 860.516 1033.27 859.769 1032.07C859.08 1030.95 859.589 1029.61 860.899 1029.08C862.605 1028.4 862.639 1028.08 861.023 1027.97C859.78 1027.89 858.272 1028.62 857.673 1029.59ZM711.85 1034.14C711.85 1035.53 710.712 1036.66 709.32 1036.66C706.125 1036.66 706.021 1034.13 709.162 1032.87C710.467 1032.34 711.606 1031.84 711.691 1031.76C711.778 1031.68 711.85 1032.75 711.85 1034.14ZM741.096 1036.25C743.702 1034.64 743.182 1036.54 740.383 1038.86C738.514 1040.41 737.886 1039.9 737.731 1036.72C737.619 1034.43 737.94 1033.63 738.444 1034.94C738.949 1036.25 740.142 1036.84 741.096 1036.25ZM802.548 1037.26C806.211 1041.3 808.351 1042.38 806.376 1039.19C805.731 1038.15 806.109 1037.29 807.213 1037.29C808.317 1037.29 809.221 1038.15 809.221 1039.19C809.221 1040.23 810.692 1041.08 812.49 1041.08C815.037 1041.08 814.73 1040.36 811.084 1037.81C808.514 1036.02 804.762 1034.3 802.746 1033.99C799.187 1033.44 799.181 1033.54 802.548 1037.26ZM694.511 1038.82C693.929 1039.41 692.398 1038.82 691.11 1037.53C689.251 1035.66 689.469 1035.44 692.172 1036.47C694.043 1037.18 695.095 1038.24 694.511 1038.82ZM725.356 1049.87C722.905 1052.32 721.19 1052.49 715.997 1050.82C707.882 1048.2 703.741 1048.9 700.048 1053.5C697.241 1057 697.203 1056.97 699.276 1052.71L701.454 1048.25L680.886 1049.32C669.573 1049.92 660.055 1050.43 659.732 1050.48C659.41 1050.52 659.749 1051.62 660.485 1052.92C661.555 1054.81 661.312 1054.81 659.269 1052.92C655.646 1049.56 652.735 1049.97 655.612 1053.44C657.627 1055.86 657.49 1056.12 654.753 1055.07C652.427 1054.18 651.674 1054.68 652.114 1056.8C652.454 1058.44 651.877 1059.74 650.834 1059.71C649.791 1059.67 649.028 1059.09 649.14 1058.41C649.252 1057.74 647.759 1055.69 645.821 1053.87C643.3 1051.5 642.298 1051.27 642.298 1053.06C642.298 1054.44 644.432 1057.58 647.04 1060.02C649.648 1062.47 651.782 1063.83 651.782 1063.06C651.782 1062.28 653.078 1062.94 654.66 1064.52C657.232 1067.09 658.435 1067.06 665.994 1064.26C671.394 1062.26 673.61 1060.61 672.126 1059.69C670.848 1058.9 669.518 1059.08 669.171 1060.08C668.249 1062.76 665.624 1062.33 664.465 1059.31C663.361 1056.44 671.957 1055.48 673.691 1058.28C674.228 1059.15 676.132 1059.35 677.925 1058.74C680.49 1057.86 680.374 1058.27 677.39 1060.68C674.112 1063.32 673.983 1064 676.442 1065.64C678.168 1066.79 678.399 1067.55 677.028 1067.57C675.785 1067.59 674.241 1066.75 673.596 1065.7C672.951 1064.66 671.57 1063.81 670.527 1063.81C669.484 1063.81 669.247 1064.81 670.002 1066.03C670.895 1067.47 670.377 1067.86 668.518 1067.15C666.95 1066.55 664.461 1066.85 662.991 1067.81C661.18 1069 663.68 1069.57 670.751 1069.58C676.489 1069.58 688.193 1069.84 696.761 1070.14C706.586 1070.5 712.622 1069.96 713.112 1068.68C713.595 1067.41 710.594 1066.68 705.124 1066.72C695.319 1066.8 689.742 1064.27 693.898 1061.64C695.628 1060.54 695.689 1060.07 694.099 1060.05C692.857 1060.04 691.313 1060.87 690.668 1061.92C690.023 1062.96 687.625 1063.82 685.34 1063.84C682.047 1063.86 681.762 1064.23 683.965 1065.62C685.729 1066.74 687.639 1066.64 689.181 1065.36C690.918 1063.93 691.616 1063.96 691.616 1065.47C691.616 1068.95 683.041 1068.76 678.693 1065.19C676.664 1063.53 676.753 1062.84 679.183 1061.48C680.821 1060.57 683.223 1060.45 684.518 1061.23C685.848 1062.03 685.636 1061.11 684.029 1059.13C681.368 1055.84 681.451 1055.75 685.315 1057.81C687.586 1059.02 690.583 1059.57 691.975 1059.04C693.367 1058.51 698.764 1057.75 703.969 1057.35C709.172 1056.96 714.121 1056.54 714.965 1056.43C715.809 1056.33 715.858 1055.17 715.075 1053.87C714.107 1052.26 714.678 1052.33 716.86 1054.1C719.248 1056.03 720.72 1056.16 722.615 1054.59C724.015 1053.43 725.794 1053.11 726.566 1053.88C727.34 1054.65 727.689 1054.31 727.34 1053.11C726.993 1051.91 727.562 1050.93 728.605 1050.93C729.648 1050.93 730.29 1051.7 730.028 1052.64C729.766 1053.57 731.688 1054.45 734.296 1054.58C736.904 1054.71 740.318 1054.92 741.883 1055.05C743.448 1055.18 744.941 1054.43 745.203 1053.39C745.464 1052.35 742.864 1051.36 739.427 1051.19C735.99 1051.02 732.091 1049.98 730.766 1048.88C729.028 1047.44 727.518 1047.71 725.356 1049.87ZM646.092 1051.3C646.092 1051.71 647.372 1052.53 648.937 1053.13C650.502 1053.73 651.782 1053.39 651.782 1052.39C651.782 1051.38 650.502 1050.55 648.937 1050.55C647.372 1050.55 646.092 1050.89 646.092 1051.3ZM747.257 1053.67C747.257 1055.28 749.116 1056.11 752.212 1055.87C754.937 1055.66 758.247 1056.16 759.566 1056.97C760.905 1057.8 763.35 1057.33 765.093 1055.92C767.322 1054.12 767.809 1054.07 766.794 1055.76C765.994 1057.09 766.299 1058.13 767.491 1058.13C768.657 1058.13 769.031 1059.07 768.321 1060.21C767.47 1061.59 768.477 1061.52 771.292 1060.02C776.954 1056.99 784.479 1056.27 783.997 1058.79C783.787 1059.91 785.513 1060.95 787.833 1061.11C790.152 1061.26 791.651 1060.75 791.163 1059.96C790.674 1059.17 791.55 1058.04 793.11 1057.44C794.669 1056.84 795.875 1055.26 795.794 1053.93C795.676 1052.01 795.441 1052 794.684 1053.88C794.155 1055.19 792.943 1055.78 791.989 1055.19C791.034 1054.6 790.253 1054.99 790.253 1056.06C790.253 1057.13 788.978 1057.52 787.419 1056.92C785.86 1056.33 784.925 1055.29 785.34 1054.61C785.755 1053.94 782.656 1053.28 778.453 1053.14C773.46 1052.97 771.715 1053.45 773.418 1054.53C774.852 1055.43 775.131 1056.19 774.035 1056.21C772.938 1056.22 771.043 1055.24 769.824 1054.02C766.512 1050.71 747.257 1050.42 747.257 1053.67ZM619.138 1056.11C616.209 1059.52 616.216 1059.75 619.257 1059.52C621.05 1059.39 622.516 1057.74 622.516 1055.86C622.516 1053.98 622.463 1052.45 622.396 1052.45C622.33 1052.45 620.864 1054.09 619.138 1056.11ZM631.006 1055.39C633.741 1058.69 630.733 1059.08 627.503 1055.86C625.733 1054.09 625.227 1054.13 625.227 1056.03C625.227 1057.38 626.924 1058.93 628.999 1059.47C631.075 1060.01 632.364 1061.11 631.865 1061.92C631.367 1062.72 632.23 1064.43 633.783 1065.72C635.896 1067.47 636.608 1067.5 636.608 1065.82C636.608 1064.49 637.562 1064.2 638.979 1065.11C640.284 1065.94 643.23 1066.67 645.529 1066.73C648.74 1066.8 649.235 1066.26 647.668 1064.37C646.545 1063.02 643.812 1061.9 641.593 1061.89C639.371 1061.87 636.276 1060.95 634.711 1059.84C632.537 1058.3 633.21 1058.08 637.556 1058.94C643.032 1060.01 643.083 1059.96 638.92 1057.57C636.539 1056.21 635.009 1054.67 635.519 1054.17C636.027 1053.66 634.709 1053.11 632.59 1052.95C629.434 1052.71 629.145 1053.16 631.006 1055.39ZM797.121 1057.26C796.674 1058.43 797.29 1059.43 798.495 1059.48C799.699 1059.53 802.18 1060.19 804.005 1060.95C806.056 1061.8 807.325 1061.48 807.325 1060.11C807.325 1058.9 808.311 1058.51 809.516 1059.26C810.902 1060.11 811.189 1059.77 810.293 1058.33C809.206 1056.57 808.19 1056.61 805.853 1058.51C803.271 1060.6 802.998 1060.5 804.016 1057.78C804.893 1055.44 804.24 1054.66 801.575 1054.86C799.576 1055.02 797.571 1056.1 797.121 1057.26ZM592.98 1058.02C592.98 1059 593.691 1060.24 594.56 1060.77C595.431 1061.31 596.142 1060.51 596.142 1058.99C596.142 1057.47 595.431 1056.23 594.56 1056.23C593.691 1056.23 592.98 1057.04 592.98 1058.02ZM663.164 1060.97C665.161 1063.37 664.757 1063.81 660.55 1063.81C655.741 1063.81 654.226 1062 656.841 1059.39C658.805 1057.43 660.593 1057.88 663.164 1060.97ZM776.211 1059.73C775.554 1060.79 775.941 1062.22 777.07 1062.92C779.987 1064.72 781.869 1062.26 779.433 1059.83C778.071 1058.47 777.011 1058.43 776.211 1059.73ZM623.33 1063.81C621.621 1064.91 621.385 1065.66 622.744 1065.68C623.986 1065.69 625.53 1064.85 626.175 1063.81C627.63 1061.46 626.974 1061.46 623.33 1063.81ZM716.276 1068.17C716.276 1071.23 719.096 1072.2 726.065 1071.51C727.799 1071.34 729.779 1072.11 730.466 1073.22C731.151 1074.33 732.64 1074.67 733.772 1073.97C735.005 1073.2 735.284 1073.58 734.466 1074.9C733.647 1076.22 734.853 1077.8 737.494 1078.86C741.538 1080.48 741.585 1080.65 738.089 1081.04C736.003 1081.27 732.801 1081.33 730.976 1081.18C729.151 1081.03 727.657 1081.76 727.657 1082.82C727.657 1083.87 730.993 1084.5 735.083 1084.22C739.167 1083.93 742.152 1083.34 741.716 1082.9C741.282 1082.47 742.287 1080.61 743.951 1078.78C746.766 1075.67 746.669 1075.51 742.532 1076.47L738.089 1077.5L742.682 1074.11C747.035 1070.89 747.084 1070.64 743.63 1069.3C741.424 1068.44 743.165 1068.15 748.048 1068.56C752.481 1068.93 756.11 1068.44 756.11 1067.47C756.11 1066.5 751.415 1065.7 745.677 1065.7C734.554 1065.7 733.287 1066.6 738.564 1070.72C741.553 1073.06 741.318 1073.25 736.193 1072.66C733.063 1072.31 730.396 1071.02 730.265 1069.81C730.134 1068.59 729.922 1067.19 729.791 1066.7C729.66 1066.2 727.528 1066.57 725.052 1067.51C722.078 1068.64 719.825 1068.49 718.413 1067.08C716.828 1065.5 716.276 1065.78 716.276 1068.17ZM725.263 1078.38C723.425 1078.86 722.497 1080.18 723.203 1081.32C724.018 1082.64 723.36 1082.96 721.389 1082.21C718.06 1080.93 715.092 1083.69 717.918 1085.43C718.855 1086.01 721.782 1084.79 724.421 1082.72C727.365 1080.41 730.5 1079.44 732.541 1080.23C734.812 1081.1 735.432 1080.8 734.495 1079.28C733.095 1077.02 731.185 1076.84 725.263 1078.38ZM746.375 1081.01C745.007 1081.85 744.501 1083.15 745.246 1083.9C746.788 1085.44 758.014 1086.1 757.991 1084.64C757.957 1082.5 748.674 1079.59 746.375 1081.01ZM780.414 1095.41C781.782 1095.96 783.419 1095.89 784.048 1095.26C784.678 1094.63 783.559 1094.18 781.56 1094.26C779.35 1094.36 778.9 1094.8 780.414 1095.41ZM756.11 1099.86C756.11 1100.87 757.39 1101.69 758.955 1101.69C760.52 1101.69 761.8 1101.36 761.8 1100.95C761.8 1100.54 760.52 1099.71 758.955 1099.11C757.39 1098.51 756.11 1098.85 756.11 1099.86ZM749.423 1101.77C748.752 1102.85 746.568 1103.22 744.569 1102.59C742.456 1101.92 740.935 1102.33 740.935 1103.57C740.935 1104.74 741.788 1105.18 742.832 1104.53C743.875 1103.89 744.728 1104.17 744.728 1105.17C744.728 1106.16 743.378 1107.49 741.728 1108.12C737.431 1109.76 736.739 1109.56 738.27 1107.08C739.135 1105.68 738.787 1105.41 737.308 1106.32C736.033 1107.11 735.546 1108.31 736.223 1108.98C737.915 1110.67 746.574 1110.72 745.531 1109.03C745.07 1108.29 746.95 1105.9 749.708 1103.74C752.468 1101.57 753.807 1099.8 752.684 1099.8C751.561 1099.8 750.095 1100.68 749.423 1101.77ZM765.854 1102.95C766.933 1104.25 767.254 1106.42 766.565 1107.76C765.877 1109.11 766.656 1108.56 768.299 1106.54C772.258 1101.66 772.064 1099.97 767.587 1100.31C764.86 1100.52 764.406 1101.21 765.854 1102.95ZM772.495 1102.64C771.895 1104.2 772.231 1105.48 773.24 1105.48C774.251 1105.48 775.078 1104.2 775.078 1102.64C775.078 1101.08 774.742 1099.8 774.333 1099.8C773.923 1099.8 773.096 1101.08 772.495 1102.64ZM761.1 1106.46C760.44 1108.18 758.968 1108.91 757.728 1108.15C756.297 1107.27 756.037 1107.62 756.99 1109.16C758.124 1110.99 759.128 1110.85 761.438 1108.55C763.077 1106.91 763.936 1105.09 763.344 1104.5C762.752 1103.91 761.743 1104.79 761.1 1106.46ZM711.533 1109.27C710.888 1110.31 711.266 1111.16 712.37 1111.16C713.474 1111.16 714.379 1110.31 714.379 1109.27C714.379 1108.23 714.003 1107.37 713.542 1107.37C713.081 1107.37 712.178 1108.23 711.533 1109.27ZM723.026 1109.9C720.121 1112.02 720.048 1112.43 722.583 1112.43C724.24 1112.43 726.033 1111.29 726.568 1109.9C727.101 1108.51 727.3 1107.37 727.012 1107.37C726.721 1107.37 724.929 1108.51 723.026 1109.9ZM750.419 1109.12C752.948 1110.93 752.948 1111.39 750.419 1113.2C747.89 1115.01 747.89 1115.15 750.419 1114.46C751.984 1114.04 753.264 1112.55 753.264 1111.16C753.264 1109.77 751.984 1108.29 750.419 1107.86C747.89 1107.17 747.89 1107.31 750.419 1109.12ZM734.134 1115.21C733.315 1116.53 733.581 1116.92 734.789 1116.18C735.904 1115.49 737.249 1116 737.778 1117.31C738.465 1119.01 738.782 1119.04 738.888 1117.43C739.104 1114.17 735.747 1112.6 734.134 1115.21ZM742.079 1116.53C741.542 1117.4 742.344 1118.11 743.863 1118.11C745.383 1118.11 746.625 1117.4 746.625 1116.53C746.625 1115.66 745.823 1114.95 744.84 1114.95C743.858 1114.95 742.615 1115.66 742.079 1116.53ZM756.11 1116.84C754.4 1117.95 754.165 1118.69 755.523 1118.71C756.766 1118.72 758.31 1117.89 758.955 1116.84C760.41 1114.49 759.753 1114.49 756.11 1116.84ZM732.841 1126.55C734.129 1127.84 735.66 1128.43 736.242 1127.84C736.826 1127.26 735.773 1126.2 733.903 1125.49C731.2 1124.46 730.982 1124.68 732.841 1126.55ZM716.038 1128.21C715.56 1132.02 715.234 1133 713.512 1135.78C711.987 1138.25 712.184 1138.28 715.008 1135.99C716.799 1134.54 717.823 1132.91 717.287 1132.38C716.748 1131.84 717.26 1130.25 718.421 1128.86C719.974 1126.99 719.971 1126.31 718.404 1126.31C717.234 1126.31 716.169 1127.17 716.038 1128.21ZM745.777 1129.94C745.167 1130.93 745.476 1132.23 746.464 1132.84C747.452 1133.45 748.759 1133.14 749.37 1132.16C749.981 1131.17 749.672 1129.87 748.683 1129.26C747.695 1128.65 746.388 1128.95 745.777 1129.94ZM708.182 1132.23C709.47 1133.53 711 1134.11 711.583 1133.52C712.167 1132.94 711.114 1131.88 709.244 1131.17C706.541 1130.14 706.323 1130.36 708.182 1132.23ZM720.069 1131.96C720.069 1132.8 722.416 1133.54 725.286 1133.61C728.156 1133.68 732.124 1133.81 734.104 1133.91C736.086 1134 738.647 1133.13 739.795 1131.97C741.329 1130.42 740.55 1130.37 736.862 1131.76C734.1 1132.8 731.354 1133.16 730.76 1132.57C728.998 1130.81 720.069 1130.3 720.069 1131.96ZM701.101 1138.08C701.101 1138.9 702.33 1139.57 703.834 1139.57C705.338 1139.57 706.981 1138.9 707.489 1138.08C707.996 1137.27 706.765 1136.6 704.756 1136.6C702.745 1136.6 701.101 1137.27 701.101 1138.08ZM729.554 1138.63C732.162 1140.11 736.003 1141.32 738.089 1141.32C740.176 1141.31 738.469 1140.07 734.296 1138.57C724.791 1135.15 723.495 1135.17 729.554 1138.63ZM718.952 1140.69C719.159 1142.1 720.058 1143.92 720.951 1144.73C721.843 1145.54 722 1145.2 721.298 1143.98C720.564 1142.7 721.439 1141.46 723.366 1141.06C726.188 1140.47 726.075 1140.19 722.641 1139.25C719.863 1138.49 718.694 1138.95 718.952 1140.69Z" fill="url(#paint0_linear_7353_1776)"/>
<path fill-rule="evenodd" clip-rule="evenodd" d="M732.651 137.623L1007.11 607.935H902.222L732.651 519.99L563.08 607.935H458.188L732.651 137.623ZM568.061 538.117L732.651 452.755L897.241 538.117L732.651 256.081L568.061 538.117Z" fill="#20435B"/>
<path d="M733.738 561.042L647.14 606.556H820.921L733.738 561.042Z" fill="#20435B"/>
<defs>
<linearGradient id="paint0_linear_7353_1776" x1="725.5" y1="-1.98709e-09" x2="725.458" y2="1161.62" gradientUnits="userSpaceOnUse">
<stop stop-color="#2591C1"/>
<stop offset="1" stop-color="#345591"/>
</linearGradient>
</defs>
</svg>
